<?xml version="1.0" encoding="utf-8"?>
<!-- Generator: Adobe Illustrator 23.0.3, SVG Export Plug-In . SVG Version: 6.00 Build 0)  -->
<svg version="1.1" id="Layer_1" xmlns="http://www.w3.org/2000/svg" xmlns:xlink="http://www.w3.org/1999/xlink" x="0px" y="0px"
	 width="1000px" height="1000px" viewBox="0 0 1000 1000" style="enable-background:new 0 0 1000 1000;" xml:space="preserve">
<style type="text/css">
	.st0{fill:#D6D7DB;}
	.st1{fill:#76BAF2;}
	.st2{fill:#F1A583;}
	.st3{fill:#A99298;}
	.st4{fill:#3E3A58;}
	.st5{fill:#2E3A58;}
	.st6{fill:#2F2B41;}
	.st7{fill:#3C2826;}
	.st8{fill:#8992B5;}
	.st9{fill:#B1B8BF;}
	.st10{fill:#A07485;}
	.st11{fill:#90ACD6;}
	.st12{fill:#B3BFD0;}
	.st13{fill:#C1C3C9;}
	.st14{fill:#AC6365;}
	.st15{fill:#A0A0B9;}
	.st16{fill:#A07789;}
	.st17{fill:#99AACF;}
	.st18{fill:#9897A3;}
	.st19{fill:#D79DB9;}
	.st20{fill:#4D354A;}
	.st21{fill:#472F29;}
	.st22{fill:#9F9FCD;}
	.st23{fill:#472F49;}
	.st24{fill:#573B33;}
	.st25{fill:#D7AFB4;}
	.st26{fill:#8E7869;}
</style>
<g>
	<g>
		<g id="XMLID_1_">
			<g>
				<path class="st0" d="M500,280v20c-13.8,0-27.3,1.4-40.3,4l-4-19.6C470,281.5,484.8,280,500,280z"/>
				<path class="st0" d="M500,300v20c-12.4,0-24.5,1.3-36.2,3.6l-4-19.6C472.7,301.4,486.2,300,500,300z"/>
				<path class="st0" d="M500,240v20c-16.5,0-32.7,1.7-48.3,4.9l-4-19.6C464.6,241.8,482.1,240,500,240z"/>
				<path class="st0" d="M500,220v20c-17.9,0-35.4,1.8-52.4,5.3l-4-19.6C461.8,221.9,480.7,220,500,220z"/>
				<path class="st0" d="M500,260v20c-15.2,0-30,1.5-44.3,4.5l-4-19.6C467.3,261.7,483.5,260,500,260z"/>
				<path class="st0" d="M500,320v20c-11,0-21.8,1.1-32.2,3.2l-4-19.6C475.5,321.3,487.6,320,500,320z"/>
				<path class="st0" d="M500,340v20c-9.6,0-19.1,1-28.2,2.8l-4-19.6C478.2,341.1,489,340,500,340z"/>
				<path class="st0" d="M500,160v20c-22.1,0-43.6,2.2-64.4,6.5l-4-19.6C453.7,162.4,476.5,160,500,160z"/>
				<path class="st0" d="M500,180v20c-20.7,0-40.9,2.1-60.4,6.1l-4-19.6C456.4,182.2,477.9,180,500,180z"/>
				<path class="st1" d="M500,200v20c-19.3,0-38.2,1.9-56.4,5.7l-4-19.6C459.1,202.1,479.3,200,500,200z"/>
				<path class="st2" d="M500,140v20c-23.5,0-46.3,2.4-68.5,6.9l-4-19.6C450.9,142.5,475.2,140,500,140z"/>
				<path class="st3" d="M500,360v20c-8.3,0-16.4,0.8-24.2,2.4l-4-19.6C480.9,361,490.4,360,500,360z"/>
				<path class="st4" d="M980,500c0,8.1-0.2,16.3-0.6,24.3h0l-20-1c0.4-7.7,0.6-15.5,0.6-23.3c0-23.7-1.8-47-5.2-69.7l19.7-3l0.1,0
					C978.1,451,980,475.3,980,500z"/>
				<path class="st5" d="M979.4,524.3L979.4,524.3c-1.6,33-6.6,65.1-14.6,96l-0.1,0l-19.3-5c7.7-29.6,12.4-60.4,14-92L979.4,524.3z"
					/>
				<path class="st6" d="M974.5,427.3L974.5,427.3l-19.8,3c-4.7-31.2-12.6-61.3-23.3-90.1l18.6-6.9l0.1,0
					C961.4,363.3,969.6,394.8,974.5,427.3z"/>
				<path class="st5" d="M964.7,620.3l0.1,0c-8.2,31.8-19.6,62.2-33.8,91.1l-0.1,0l-17.9-8.8c13.6-27.7,24.5-56.9,32.3-87.3
					L964.7,620.3z"/>
				<path class="st4" d="M960,500c0,7.8-0.2,15.6-0.6,23.3l-20-1c0.4-7.4,0.5-14.8,0.5-22.3c0-22.6-1.7-44.9-5-66.6l19.8-3
					C958.2,453,960,476.3,960,500z"/>
				<path class="st5" d="M939.5,522.3l20,1c-1.6,31.6-6.3,62.4-14,92l-19.4-5C933.4,582,937.9,552.5,939.5,522.3z"/>
				<path class="st6" d="M954.8,430.3l-19.8,3c-4.5-29.8-12-58.7-22.3-86.2l18.8-7C942.2,369,950,399.1,954.8,430.3z"/>
				<path class="st6" d="M950.2,333.3l-0.1,0l-18.6,6.9c-10.9-29.4-24.7-57.3-41-83.5l16.9-10.5l0.1,0
					C924.5,273.4,938.9,302.6,950.2,333.3z"/>
				<path class="st5" d="M926.1,610.3l19.4,5c-7.8,30.4-18.8,59.6-32.3,87.3l-18-8.8C908.1,667.4,918.5,639.4,926.1,610.3z"/>
				<path class="st5" d="M940,500c0,7.5-0.2,14.9-0.5,22.3l-20-1c0.4-7,0.5-14.1,0.5-21.3c0-21.6-1.6-42.9-4.8-63.6l19.8-3
					C938.3,455.1,940,477.4,940,500z"/>
				<path class="st7" d="M919.5,521.3l20,1c-1.5,30.3-6.1,59.7-13.4,88l-19.4-5C913.7,578.3,918,550.2,919.5,521.3z"/>
				<path class="st7" d="M935,433.4l-19.8,3c-4.3-28.5-11.5-56-21.3-82.3l18.8-6.9C922.9,374.7,930.5,403.5,935,433.4z"/>
				<path class="st6" d="M931.5,340.2l-18.8,7c-10.4-28.1-23.6-54.9-39.3-79.9l17-10.6C906.8,282.9,920.6,310.8,931.5,340.2z"/>
				<path class="st5" d="M931,711.4L931,711.4c-14.3,29.3-31.6,56.9-51.4,82.4l0,0l-15.8-12.2c19-24.5,35.5-50.9,49.3-79L931,711.4z
					"/>
				<path class="st5" d="M906.7,605.3l19.4,5c-7.5,29.1-17.9,57-30.9,83.5l-18-8.8C889.6,659.8,899.5,633.1,906.7,605.3z"/>
				<path class="st5" d="M920,500c0,7.1-0.2,14.2-0.5,21.3l-20-1c0.3-6.7,0.5-13.5,0.5-20.3c0-20.6-1.6-40.8-4.6-60.6l19.8-3
					C918.4,457.1,920,478.4,920,500z"/>
				<path class="st7" d="M899.5,520.3l20,1c-1.4,28.9-5.8,57-12.8,84l-19.4-5C894,574.5,898.1,547.8,899.5,520.3z"/>
				<path class="st5" d="M915.2,436.4l-19.8,3c-4.1-27.1-11-53.3-20.2-78.4l18.8-7C903.7,380.4,910.9,407.9,915.2,436.4z"/>
				<path class="st5" d="M895.1,693.8l18,8.8c-13.8,28-30.3,54.5-49.3,79L848,769.3C866.1,745.9,881.9,720.6,895.1,693.8z"/>
				<path class="st6" d="M912.7,347.1l-18.8,6.9c-9.9-26.8-22.5-52.4-37.5-76.3l17-10.6C889.1,292.3,902.3,319,912.7,347.1z"/>
				<path class="st5" d="M907.4,246.1L907.4,246.1l-17,10.6c-16.5-26.4-35.6-51.1-57-73.6l14.5-13.8
					C870.2,192.8,890.2,218.5,907.4,246.1z"/>
				<path class="st5" d="M887.3,600.3l19.4,5c-7.2,27.8-17.1,54.5-29.5,79.7l-18-8.8C871,652.2,880.5,626.8,887.3,600.3z"/>
				<path class="st5" d="M900,500c0,6.8-0.2,13.5-0.5,20.3l-20-1c0.3-6.4,0.5-12.8,0.5-19.3c0-19.6-1.5-38.8-4.3-57.5l19.8-3
					C898.4,459.2,900,479.4,900,500z"/>
				<path class="st7" d="M879.5,519.3l20,1c-1.4,27.5-5.5,54.3-12.2,80l-19.4-5C874.3,570.8,878.2,545.4,879.5,519.3z"/>
				<path class="st7" d="M895.4,439.4l-19.8,3c-3.9-25.8-10.4-50.7-19.2-74.5l18.8-6.9C884.5,386.1,891.3,412.3,895.4,439.4z"/>
				<path class="st5" d="M877.2,685l18,8.8c-13.2,26.8-29,52.1-47.2,75.5l-15.8-12.3C849.5,734.8,864.6,710.6,877.2,685z"/>
				<path class="st6" d="M894,354.1l-18.8,7c-9.5-25.6-21.5-49.9-35.7-72.6l17-10.6C871.4,301.7,884,327.3,894,354.1z"/>
				<path class="st5" d="M890.4,256.6l-17,10.6c-15.8-25.3-34.1-48.9-54.6-70.4l14.5-13.8C854.8,205.6,873.9,230.2,890.4,256.6z"/>
				<path class="st5" d="M868,595.3l19.4,5c-6.8,26.5-16.3,51.9-28.1,75.9l-18-8.8C852.5,644.5,861.5,620.4,868,595.3z"/>
				<path class="st8" d="M880,500c0,6.5-0.2,12.9-0.5,19.3l-20-1c0.3-6,0.5-12.1,0.5-18.2c0-18.5-1.4-36.7-4.1-54.5l19.8-3
					C878.5,461.2,880,480.4,880,500z"/>
				<path class="st6" d="M879.6,793.8L879.6,793.8c-19.9,25.7-42.3,49.3-66.9,70.4l-13-15.2c23.6-20.3,45.1-42.9,64.1-67.5
					L879.6,793.8z"/>
				<path class="st8" d="M859.5,518.2l20,1c-1.3,26.1-5.2,51.5-11.6,76l-19.4-5C854.6,567.1,858.3,543,859.5,518.2z"/>
				<path class="st5" d="M859.2,676.2l18,8.8c-12.6,25.6-27.7,49.8-45,72.1l-15.8-12.2C832.8,723.6,847.2,700.6,859.2,676.2z"/>
				<path class="st8" d="M875.7,442.5l-19.8,3c-3.7-24.4-9.9-48-18.2-70.5l18.8-7C865.3,391.8,871.8,416.7,875.7,442.5z"/>
				<path class="st6" d="M875.2,361l-18.8,6.9c-9-24.3-20.4-47.4-33.9-69l17-10.6C853.7,311.2,865.7,335.5,875.2,361z"/>
				<path class="st5" d="M873.5,267.2l-17,10.6c-15.1-24.1-32.5-46.6-52.1-67.2l14.5-13.8C839.4,218.4,857.7,241.9,873.5,267.2z"/>
				<path class="st2" d="M848.6,590.3l19.4,5c-6.5,25.1-15.5,49.3-26.7,72.1l-17.9-8.8C833.9,636.9,842.4,614.1,848.6,590.3z"/>
				<path class="st6" d="M848,769.3l15.8,12.2c-19.1,24.6-40.6,47.2-64.1,67.5l-13-15.2C809.2,814.5,829.7,792.9,848,769.3z"/>
				<path class="st1" d="M860,500c0,6.1-0.2,12.2-0.5,18.2l-20-1c0.3-5.7,0.4-11.4,0.4-17.2c0-17.5-1.3-34.7-3.9-51.5l19.8-3
					C858.6,463.3,860,481.5,860,500z"/>
				<path class="st1" d="M839.6,517.2l20,1c-1.2,24.7-5,48.8-10.9,72l-19.4-5C834.9,563.3,838.4,540.6,839.6,517.2z"/>
				<path class="st4" d="M841.2,667.4l18,8.8c-12,24.4-26.4,47.4-42.9,68.7l-15.8-12.2C816.2,712.4,829.9,690.5,841.2,667.4z"/>
				<path class="st5" d="M856.5,277.8l-17,10.6c-14.4-23-31-44.4-49.6-64l14.5-13.8C823.9,231.2,841.4,253.7,856.5,277.8z"/>
				<path class="st2" d="M856.4,368l-18.8,7c-8.5-23-19.3-44.9-32.1-65.4l17-10.6C836,320.6,847.5,343.7,856.4,368z"/>
				<path class="st1" d="M855.9,445.5l-19.8,3c-3.5-23-9.3-45.3-17.2-66.6l18.8-6.9C846,397.5,852.2,421.1,855.9,445.5z"/>
				<path class="st9" d="M829.2,585.2l19.4,5c-6.2,23.8-14.7,46.7-25.3,68.3l-18-8.8C815.4,629.3,823.4,607.7,829.2,585.2z"/>
				<path class="st6" d="M832.1,757.1l15.8,12.3c-18.2,23.5-38.8,45.1-61.4,64.5l-13-15.2C795.1,800.2,814.7,779.5,832.1,757.1z"/>
				<path class="st6" d="M847.9,169.3l-14.5,13.8c-21.4-22.5-45.1-42.9-70.6-60.7l11.4-16.4l0,0
					C800.9,124.6,825.6,145.8,847.9,169.3z"/>
				<path class="st10" d="M823.3,658.6l17.9,8.8c-11.4,23.2-25,45-40.7,65.2l-15.8-12.2C799.5,701.2,812.5,680.5,823.3,658.6z"/>
				<path class="st1" d="M840,500c0,5.8-0.1,11.5-0.4,17.2l-20-1c0.3-5.4,0.4-10.8,0.4-16.2c0-16.5-1.3-32.7-3.7-48.5l19.8-3
					C838.7,465.3,840,482.5,840,500z"/>
				<path class="st1" d="M819.6,516.2l20,1c-1.2,23.4-4.7,46.1-10.3,68l-19.4-5C815.2,559.6,818.5,538.2,819.6,516.2z"/>
				<path class="st5" d="M839.5,288.4l-17,10.6c-13.6-21.9-29.4-42.2-47.1-60.8l14.5-13.8C808.5,244,825.1,265.4,839.5,288.4z"/>
				<path class="st0" d="M837.7,374.9l-18.8,6.9c-8-21.7-18.2-42.4-30.3-61.8l17-10.6C818.4,330.1,829.2,351.9,837.7,374.9z"/>
				<path class="st1" d="M836.1,448.5l-19.8,3c-3.3-21.7-8.8-42.7-16.2-62.7l18.8-6.9C826.8,403.2,832.6,425.5,836.1,448.5z"/>
				<path class="st6" d="M833.4,183.1l-14.5,13.8c-20.5-21.5-43.1-41-67.5-58l11.4-16.4C788.3,140.2,812,160.6,833.4,183.1z"/>
				<path class="st6" d="M816.3,744.8l15.8,12.2c-17.4,22.4-37,43.1-58.6,61.6l-13-15.2C781,785.9,799.8,766.2,816.3,744.8z"/>
				<path class="st9" d="M809.9,580.2l19.4,5c-5.8,22.5-13.9,44.1-23.9,64.5l-18-8.8C796.8,621.7,804.4,601.4,809.9,580.2z"/>
				<path class="st11" d="M805.3,649.8l18,8.8c-10.8,22-23.7,42.6-38.6,61.8l-15.8-12.3C782.9,690,795.1,670.5,805.3,649.8z"/>
				<path class="st8" d="M822.5,299l-17,10.6c-12.9-20.7-27.9-40-44.6-57.6l14.5-13.8C793.1,256.8,808.9,277.1,822.5,299z"/>
				<path class="st1" d="M820,500c0,5.4-0.1,10.8-0.4,16.2l-20-1c0.3-5,0.4-10.1,0.4-15.2c0-15.5-1.2-30.6-3.4-45.4l19.8-3
					C818.8,467.3,820,483.5,820,500z"/>
				<path class="st1" d="M799.6,515.2l20,1c-1.1,22-4.4,43.4-9.7,64l-19.4-5C795.5,555.9,798.6,535.8,799.6,515.2z"/>
				<path class="st0" d="M818.9,381.9l-18.8,6.9c-7.6-20.4-17.2-39.9-28.5-58.1l17-10.6C800.7,339.5,810.9,360.2,818.9,381.9z"/>
				<path class="st6" d="M818.9,196.9l-14.5,13.8c-19.5-20.6-41.1-39.1-64.5-55.4l11.4-16.4C775.8,155.9,798.5,175.3,818.9,196.9z"
					/>
				<path class="st1" d="M816.3,451.5l-19.8,3c-3.1-20.3-8.2-40-15.2-58.8l18.8-7C807.6,408.9,813.1,429.8,816.3,451.5z"/>
				<path class="st5" d="M800.5,732.6l15.8,12.2c-16.6,21.4-35.3,41-55.8,58.7l-13-15.2C767,771.6,784.8,752.9,800.5,732.6z"/>
				<path class="st5" d="M799.6,849l13,15.2c-24.5,21.1-51.2,39.7-79.7,55.6l0-0.1l-9.7-17.4C750.5,887.1,776.1,869.2,799.6,849z"/>
				<path class="st9" d="M790.5,575.2l19.4,5c-5.5,21.2-13,41.5-22.5,60.7l-18-8.8C778.3,614.1,785.4,595.1,790.5,575.2z"/>
				<path class="st11" d="M805.5,309.5l-17,10.6c-12.2-19.5-26.3-37.8-42.2-54.4l14.5-13.8C777.7,269.6,792.6,288.9,805.5,309.5z"/>
				<path class="st11" d="M787.4,641l18,8.8c-10.2,20.7-22.4,40.3-36.5,58.4L753,695.9C766.3,678.9,777.8,660.5,787.4,641z"/>
				<path class="st6" d="M804.4,210.6l-14.5,13.8c-18.6-19.6-39.2-37.3-61.4-52.8l11.4-16.4C763.3,171.5,784.9,190.1,804.4,210.6z"
					/>
				<path class="st2" d="M784.7,720.4l15.8,12.2c-15.7,20.3-33.5,39-53,55.7l-13-15.2C753,757.3,769.8,739.6,784.7,720.4z"/>
				<path class="st0" d="M800.2,388.8l-18.8,7c-7.1-19.2-16.1-37.4-26.8-54.5l17-10.6C783,348.9,792.6,368.4,800.2,388.8z"/>
				<path class="st1" d="M800,500c0,5.1-0.1,10.2-0.4,15.2l-20-1c0.2-4.7,0.3-9.4,0.3-14.2c0-14.4-1.1-28.6-3.2-42.4l19.8-3
					C798.8,469.4,800,484.5,800,500z"/>
				<path class="st7" d="M786.6,833.9l13,15.2c-23.5,20.2-49.1,38.1-76.4,53.2l-9.7-17.5C739.7,870.3,764.1,853.2,786.6,833.9z"/>
				<path class="st1" d="M779.7,514.2l20,1c-1,20.6-4.1,40.7-9.1,60l-19.4-5C775.8,552.2,778.7,533.4,779.7,514.2z"/>
				<path class="st11" d="M796.6,454.6l-19.8,3c-2.9-19-7.7-37.3-14.2-54.9l18.8-7C788.4,414.6,793.5,434.2,796.6,454.6z"/>
				<path class="st9" d="M771.1,570.2l19.4,5c-5.1,19.8-12.2,38.9-21.1,56.9l-18-8.8C759.7,606.5,766.3,588.7,771.1,570.2z"/>
				<path class="st7" d="M789.9,224.4l-14.5,13.8c-17.7-18.6-37.2-35.4-58.3-50.1l11.4-16.4C750.7,187.2,771.3,204.9,789.9,224.4z"
					/>
				<path class="st11" d="M788.6,320.1l-17,10.6c-11.5-18.4-24.8-35.5-39.7-51.2l14.5-13.8C762.2,282.4,776.4,300.6,788.6,320.1z"/>
				<path class="st11" d="M769.4,632.2l18,8.8c-9.6,19.5-21.1,37.9-34.3,54.9l-15.8-12.2C749.6,667.7,760.4,650.4,769.4,632.2z"/>
				<path class="st6" d="M773.6,818.7l13,15.2c-22.5,19.3-47,36.4-73,50.9l-9.7-17.5C728.8,853.4,752.1,837.1,773.6,818.7z"/>
				<path class="st0" d="M768.9,708.1l15.8,12.3c-14.9,19.2-31.7,36.9-50.2,52.8l-13-15.2C738.9,743,754.8,726.3,768.9,708.1z"/>
				<path class="st0" d="M781.4,395.8l-18.8,7c-6.6-17.9-15-34.9-25-50.9l17-10.6C765.3,358.4,774.3,376.6,781.4,395.8z"/>
				<path class="st1" d="M780,500c0,4.8-0.1,9.5-0.3,14.2l-20-1c0.2-4.4,0.3-8.7,0.3-13.2c0-13.4-1-26.5-3-39.4l19.8-3
					C778.9,471.4,780,485.6,780,500z"/>
				<path class="st1" d="M759.7,513.2l20,1c-1,19.3-3.9,38-8.5,56l-19.4-5C756.1,548.4,758.8,531,759.7,513.2z"/>
				<path class="st0" d="M776.8,457.6l-19.8,3c-2.7-17.6-7.1-34.7-13.2-50.9l18.8-6.9C769.1,420.3,773.9,438.6,776.8,457.6z"/>
				<path class="st8" d="M775.4,238.2L760.9,252c-16.7-17.6-35.3-33.5-55.3-47.5l11.4-16.4C738.2,202.8,757.7,219.6,775.4,238.2z"/>
				<path class="st6" d="M774.2,106L774.2,106l-11.4,16.4c-25.4-17.7-52.6-32.9-81.3-45.2l7.8-18.3l0.1-0.1
					C719.3,71.7,747.8,87.5,774.2,106z"/>
				<path class="st5" d="M760.5,803.5l13,15.2c-21.5,18.5-44.8,34.8-69.7,48.6l-9.7-17.5C717.9,836.6,740.1,821.1,760.5,803.5z"/>
				<path class="st11" d="M771.6,330.7l-17,10.6c-10.8-17.2-23.3-33.3-37.2-48l14.5-13.8C746.8,295.2,760.1,312.3,771.6,330.7z"/>
				<path class="st9" d="M751.8,565.2l19.4,5c-4.8,18.5-11.4,36.3-19.7,53.1l-18-8.8C741.2,598.9,747.3,582.4,751.8,565.2z"/>
				<path class="st11" d="M751.4,623.3l18,8.8c-9,18.3-19.8,35.5-32.2,51.5l-15.8-12.3C733,656.5,743,640.4,751.4,623.3z"/>
				<path class="st12" d="M753,695.9l15.8,12.2c-14.1,18.2-30,34.9-47.4,49.9l-13-15.2C724.8,728.7,739.8,713,753,695.9z"/>
				<path class="st6" d="M762.8,122.4l-11.4,16.4c-24.3-16.9-50.3-31.5-77.8-43.3l7.9-18.4C710.2,89.5,737.4,104.7,762.8,122.4z"/>
				<path class="st0" d="M762.6,402.7l-18.8,6.9c-6.1-16.6-13.9-32.4-23.2-47.2l17-10.6C747.6,367.8,756,384.8,762.6,402.7z"/>
				<path class="st1" d="M760.9,252l-14.5,13.8c-15.8-16.6-33.3-31.7-52.2-44.8l11.4-16.4C725.7,218.4,744.2,234.4,760.9,252z"/>
				<path class="st5" d="M747.5,788.3l13,15.2c-20.4,17.6-42.7,33.1-66.4,46.3l-9.7-17.5C707,819.8,728.1,805,747.5,788.3z"/>
				<path class="st11" d="M760,500c0,4.4-0.1,8.8-0.3,13.2l-20-1c0.2-4,0.3-8.1,0.3-12.2c0-12.4-0.9-24.5-2.7-36.4l19.8-3
					C759,473.5,760,486.6,760,500z"/>
				<path class="st1" d="M739.7,512.2l20,1c-0.9,17.9-3.6,35.3-7.9,52l-19.4-5C736.4,544.7,738.9,528.7,739.7,512.2z"/>
				<path class="st0" d="M757,460.6l-19.8,3c-2.5-16.3-6.6-32-12.1-47l18.8-6.9C749.9,426,754.4,443,757,460.6z"/>
				<path class="st11" d="M754.6,341.3l-17,10.6c-10.1-16.1-21.7-31.1-34.7-44.8l14.5-13.8C731.4,308,743.9,324,754.6,341.3z"/>
				<path class="st0" d="M737.2,683.6l15.8,12.2c-13.3,17.1-28.2,32.8-44.6,46.9l-13-15.2C710.8,714.4,724.8,699.7,737.2,683.6z"/>
				<path class="st9" d="M732.4,560.2l19.4,5c-4.4,17.2-10.6,33.7-18.3,49.4l-18-8.8C722.6,591.3,728.3,576,732.4,560.2z"/>
				<path class="st11" d="M733.5,614.5l18,8.8c-8.4,17.1-18.5,33.2-30,48l-15.8-12.2C716.3,645.3,725.7,630.4,733.5,614.5z"/>
				<path class="st6" d="M751.4,138.8L740,155.3c-23.2-16.2-48-30-74.3-41.3l7.9-18.4C701.1,107.4,727.1,121.9,751.4,138.8z"/>
				<path class="st8" d="M734.5,773.2l13,15.2c-19.4,16.7-40.6,31.5-63.1,44l-9.7-17.5C696.1,803,716.1,789,734.5,773.2z"/>
				<path class="st1" d="M746.4,265.8l-14.5,13.8c-14.9-15.7-31.3-29.8-49.1-42.2l11.4-16.4C713.1,234.1,730.6,249.1,746.4,265.8z"
					/>
				<path class="st0" d="M743.9,409.7l-18.8,6.9c-5.7-15.3-12.9-29.9-21.4-43.6l17-10.6C729.9,377.3,737.7,393.1,743.9,409.7z"/>
				<path class="st6" d="M740,155.3l-11.4,16.4c-22.1-15.4-45.8-28.6-70.8-39.3l7.9-18.4C691.9,125.2,716.8,139.1,740,155.3z"/>
				<path class="st11" d="M740,500c0,4.1-0.1,8.1-0.3,12.2l-20-1c0.2-3.7,0.3-7.4,0.3-11.1c0-11.3-0.9-22.5-2.5-33.3l19.8-3
					C739.1,475.5,740,487.6,740,500z"/>
				<path class="st1" d="M719.7,511.1l20,1c-0.8,16.5-3.3,32.6-7.3,48l-19.4-5C716.7,541,719,526.3,719.7,511.1z"/>
				<path class="st11" d="M737.7,351.9l-17,10.6c-9.3-14.9-20.1-28.9-32.2-41.6l14.5-13.8C716,320.8,727.6,335.8,737.7,351.9z"/>
				<path class="st9" d="M737.3,463.6l-19.8,3c-2.3-14.9-6-29.3-11.1-43.1l18.8-7C730.7,431.6,734.8,447.4,737.3,463.6z"/>
				<path class="st0" d="M721.4,671.4l15.8,12.3c-12.4,16-26.5,30.8-41.8,44l-13-15.2C696.7,700.1,709.8,686.4,721.4,671.4z"/>
				<path class="st1" d="M721.5,758l13,15.2c-18.4,15.8-38.4,29.8-59.8,41.7l-9.7-17.5C685.2,786.1,704.1,772.9,721.5,758z"/>
				<path class="st11" d="M715.5,605.7l18,8.8c-7.8,15.8-17.1,30.8-27.9,44.6l-15.8-12.2C699.7,634.1,708.3,620.3,715.5,605.7z"/>
				<path class="st4" d="M732.9,919.7L732.9,919.7c-28.1,15.7-58,28.6-89.2,38.4l0-0.1l-6-19c29.9-9.4,58.6-21.8,85.5-36.8
					L732.9,919.7z"/>
				<path class="st9" d="M713,555.2l19.4,5c-4.1,15.9-9.8,31.1-16.9,45.5l-18-8.8C704.1,583.7,709.3,569.7,713,555.2z"/>
				<path class="st11" d="M731.9,279.5l-14.5,13.8c-14-14.7-29.4-27.9-46-39.6l11.4-16.4C700.6,249.7,717,263.9,731.9,279.5z"/>
				<path class="st6" d="M728.5,171.7l-11.4,16.4c-21-14.6-43.5-27.2-67.2-37.4l7.9-18.4C682.8,143.1,706.5,156.3,728.5,171.7z"/>
				<path class="st12" d="M725.1,416.6l-18.8,7c-5.2-14.1-11.8-27.4-19.6-40l17-10.6C712.2,386.7,719.4,401.3,725.1,416.6z"/>
				<path class="st4" d="M713.6,884.8l9.7,17.5c-27,15-55.6,27.4-85.5,36.8l-6-19.1C660.4,911,687.8,899.1,713.6,884.8z"/>
				<path class="st1" d="M708.4,742.8l13,15.2c-17.4,14.9-36.3,28.2-56.4,39.4l-9.7-17.5C674.3,769.3,692.1,756.8,708.4,742.8z"/>
				<path class="st0" d="M705.6,659.2l15.8,12.2c-11.6,15-24.7,28.7-39,41.1l-13-15.2C682.7,685.8,694.8,673,705.6,659.2z"/>
				<path class="st11" d="M720.7,362.5l-17,10.6c-8.6-13.8-18.6-26.6-29.8-38.4l14.5-13.8C700.5,333.6,711.3,347.5,720.7,362.5z"/>
				<path class="st1" d="M720,500c0,3.7-0.1,7.5-0.3,11.1l-20-1c0.2-3.4,0.3-6.7,0.3-10.1c0-10.3-0.8-20.4-2.3-30.3l19.8-3
					C719.1,477.5,720,488.7,720,500z"/>
				<path class="st1" d="M699.8,510.1l20,1c-0.8,15.1-3,29.8-6.7,44l-19.4-5C697,537.3,699.1,523.9,699.8,510.1z"/>
				<path class="st9" d="M717.5,466.7l-19.8,3c-2.1-13.6-5.5-26.7-10.1-39.2l18.8-6.9C711.5,437.3,715.2,451.8,717.5,466.7z"/>
				<path class="st11" d="M717.4,293.3l-14.5,13.8c-13-13.7-27.4-26.1-43-36.9l11.4-16.4C688.1,265.4,703.5,278.6,717.4,293.3z"/>
				<path class="st8" d="M717.1,188.1l-11.4,16.4c-19.9-13.9-41.2-25.8-63.7-35.4l7.9-18.4C673.6,160.9,696.1,173.5,717.1,188.1z"/>
				<path class="st11" d="M697.6,596.9l18,8.8c-7.2,14.6-15.8,28.4-25.7,41.2L674,634.7C683,623,691,610.3,697.6,596.9z"/>
				<path class="st4" d="M703.9,867.3l9.7,17.5c-25.8,14.3-53.2,26.2-81.8,35.1l-6-19.1C653.1,892.3,679.2,881,703.9,867.3z"/>
				<path class="st9" d="M693.7,550.1l19.4,5c-3.8,14.6-9,28.5-15.5,41.8l-18-8.8C685.5,576.1,690.3,563.4,693.7,550.1z"/>
				<path class="st1" d="M695.4,727.6l13,15.2c-16.3,14.1-34.1,26.5-53.1,37.1l-9.7-17.5C663.4,752.5,680.1,740.8,695.4,727.6z"/>
				<path class="st13" d="M706.4,423.6l-18.8,6.9c-4.7-12.8-10.7-24.9-17.8-36.3l17-10.6C694.5,396.1,701.2,409.5,706.4,423.6z"/>
				<path class="st9" d="M705.7,204.5l-11.4,16.4c-18.8-13.1-38.9-24.3-60.1-33.4l7.9-18.4C664.5,178.8,685.8,190.6,705.7,204.5z"/>
				<path class="st12" d="M689.8,646.9l15.8,12.2c-10.8,13.9-22.9,26.7-36.3,38.1l-13-15.2C668.6,671.5,679.8,659.7,689.8,646.9z"/>
				<path class="st4" d="M694.2,849.8l9.7,17.5c-24.6,13.7-50.8,25-78.1,33.6l-6-19.1C645.8,873.6,670.7,862.8,694.2,849.8z"/>
				<path class="st9" d="M703.7,373l-17,10.6c-7.9-12.6-17.1-24.4-27.3-35.2l14.5-13.8C685.1,346.4,695.1,359.2,703.7,373z"/>
				<path class="st11" d="M702.9,307.1l-14.5,13.8c-12.1-12.7-25.5-24.2-39.9-34.3l11.4-16.4C675.5,281,689.9,293.4,702.9,307.1z"/>
				<path class="st1" d="M700,500c0,3.4-0.1,6.8-0.3,10.1l-20-1c0.1-3,0.2-6.1,0.2-9.1c0-9.3-0.7-18.4-2-27.3l19.8-3
					C699.2,479.6,700,489.7,700,500z"/>
				<path class="st1" d="M679.8,509.1l20,1c-0.7,13.8-2.8,27.1-6.1,40l-19.4-5C677.3,533.5,679.2,521.5,679.8,509.1z"/>
				<path class="st9" d="M697.7,469.7l-19.8,3c-1.9-12.2-4.9-24-9.1-35.3l18.8-7C692.2,443,695.7,456.1,697.7,469.7z"/>
				<path class="st11" d="M679.6,588.1l18,8.8C691,610.3,683,623,674,634.7l-15.8-12.2C666.4,611.8,673.6,600.3,679.6,588.1z"/>
				<path class="st1" d="M682.4,712.5l13,15.2c-15.3,13.2-32,24.8-49.8,34.7l-9.7-17.5C652.5,735.6,668.1,724.8,682.4,712.5z"/>
				<path class="st9" d="M694.3,220.9l-11.4,16.4c-17.7-12.3-36.6-22.9-56.6-31.5l7.9-18.4C655.4,196.6,675.5,207.8,694.3,220.9z"/>
				<path class="st4" d="M684.4,832.3l9.7,17.5c-23.4,13-48.3,23.8-74.4,32l-6-19.1C638.5,854.9,662.2,844.7,684.4,832.3z"/>
				<path class="st9" d="M674.3,545.1l19.4,5c-3.4,13.2-8.1,25.9-14.1,38l-18-8.8C667,568.5,671.2,557,674.3,545.1z"/>
				<path class="st12" d="M674,634.7l15.8,12.2c-9.9,12.8-21.1,24.6-33.4,35.2l-13-15.2C654.6,657.2,664.9,646.4,674,634.7z"/>
				<path class="st7" d="M689.3,58.8l-0.1,0.1l-7.8,18.3c-28.3-12.2-58-21.5-88.8-27.8l4-19.5l0-0.1
					C628.8,36.3,659.8,46.1,689.3,58.8z"/>
				<path class="st9" d="M688.5,320.9L674,334.6c-11.2-11.7-23.5-22.4-36.8-31.6l11.4-16.4C663,296.6,676.3,308.1,688.5,320.9z"/>
				<path class="st12" d="M687.6,430.5l-18.8,7c-4.3-11.5-9.7-22.5-16.1-32.7l17-10.6C676.9,405.6,682.9,417.7,687.6,430.5z"/>
				<path class="st11" d="M686.7,383.6l-17,10.6c-7.2-11.5-15.5-22.2-24.8-32l14.5-13.8C669.7,359.2,678.8,371,686.7,383.6z"/>
				<path class="st10" d="M674.7,814.8l9.7,17.5c-22.3,12.4-45.9,22.6-70.7,30.4l-6-19.1C631.2,836.2,653.6,826.6,674.7,814.8z"/>
				<path class="st0" d="M682.8,237.3l-11.4,16.4c-16.5-11.5-34.3-21.5-53.1-29.5l7.9-18.4C646.2,214.4,665.2,225,682.8,237.3z"/>
				<path class="st1" d="M669.4,697.3l13,15.2c-14.3,12.3-29.9,23.2-46.5,32.4l-9.7-17.5C641.6,718.8,656.1,708.7,669.4,697.3z"/>
				<path class="st7" d="M681.5,77.2l-7.9,18.4c-27-11.6-55.5-20.6-85-26.6l4-19.6C623.5,55.6,653.2,65,681.5,77.2z"/>
				<path class="st1" d="M680,500c0,3.1-0.1,6.1-0.2,9.1l-20-1c0.1-2.7,0.2-5.4,0.2-8.1c0-8.2-0.6-16.3-1.8-24.2l19.8-3
					C679.3,481.6,680,490.7,680,500z"/>
				<path class="st1" d="M659.8,508.1l20,1c-0.6,12.4-2.5,24.4-5.5,36l-19.4-5C657.6,529.8,659.3,519.1,659.8,508.1z"/>
				<path class="st11" d="M661.6,579.3l18,8.8c-6,12.2-13.2,23.7-21.4,34.3l-15.8-12.3C649.8,600.6,656.3,590.3,661.6,579.3z"/>
				<path class="st9" d="M678,472.7l-19.8,3c-1.6-10.8-4.4-21.3-8.1-31.3l18.8-7C673,448.7,676.1,460.5,678,472.7z"/>
				<path class="st11" d="M665,797.3l9.7,17.5c-21.1,11.7-43.5,21.4-66.9,28.8l-6-19.1C623.9,817.6,645.1,808.4,665,797.3z"/>
				<path class="st9" d="M654.9,540.1l19.4,5c-3.1,11.9-7.3,23.3-12.6,34.2l-18-8.8C648.4,560.9,652.2,550.7,654.9,540.1z"/>
				<path class="st12" d="M658.2,622.4l15.8,12.2c-9.1,11.8-19.4,22.6-30.7,32.3l-13-15.2C640.5,643,649.9,633.1,658.2,622.4z"/>
				<path class="st9" d="M674,334.6l-14.5,13.8c-10.2-10.8-21.5-20.5-33.8-29l11.4-16.4C650.5,312.3,662.8,322.9,674,334.6z"/>
				<path class="st7" d="M673.6,95.6l-7.9,18.4c-25.8-11.1-52.9-19.7-81.1-25.4l4-19.6C618.1,74.9,646.5,83.9,673.6,95.6z"/>
				<path class="st0" d="M671.4,253.8L660,270.2c-15.4-10.8-32-20-49.5-27.5l7.9-18.4C637.1,232.3,654.8,242.2,671.4,253.8z"/>
				<path class="st11" d="M669.8,394.2l-17,10.6c-6.5-10.3-14-20-22.3-28.8l14.5-13.8C654.3,372,662.6,382.7,669.8,394.2z"/>
				<path class="st1" d="M656.3,682.1l13,15.2c-13.3,11.4-27.7,21.5-43.2,30.1l-9.7-17.5C630.7,702,644.1,692.7,656.3,682.1z"/>
				<path class="st12" d="M668.8,437.5l-18.8,7c-3.8-10.2-8.6-20-14.3-29.1l17-10.6C659.2,415,664.6,426,668.8,437.5z"/>
				<path class="st7" d="M665.7,113.9l-7.9,18.4c-24.6-10.6-50.4-18.7-77.3-24.2l4-19.6C612.7,94.3,639.9,102.8,665.7,113.9z"/>
				<path class="st11" d="M655.3,779.8l9.7,17.5c-19.9,11.1-41.1,20.2-63.2,27.2l-6-19.1C616.7,798.9,636.6,790.3,655.3,779.8z"/>
				<path class="st11" d="M643.7,570.5l18,8.8c-5.4,11-11.9,21.3-19.3,30.9l-15.8-12.2C633.1,589.4,638.9,580.2,643.7,570.5z"/>
				<path class="st0" d="M660,270.2l-11.4,16.4c-14.3-10-29.7-18.6-46-25.6l7.9-18.4C628,250.1,644.5,259.4,660,270.2z"/>
				<path class="st1" d="M660,500c0,2.7-0.1,5.4-0.2,8.1l-20-1c0.1-2.4,0.2-4.7,0.2-7.1c0-7.2-0.5-14.3-1.6-21.2l19.8-3
					C659.4,483.7,660,491.8,660,500z"/>
				<path class="st1" d="M639.8,507.1l20,1c-0.5,11-2.2,21.7-4.9,32l-19.4-5C637.9,526.1,639.3,516.7,639.8,507.1z"/>
				<path class="st9" d="M659.5,348.4L645,362.2c-9.3-9.8-19.6-18.6-30.7-26.4l11.4-16.4C637.9,327.9,649.2,337.7,659.5,348.4z"/>
				<path class="st9" d="M658.2,475.8l-19.8,3c-1.4-9.5-3.8-18.7-7.1-27.4l18.8-6.9C653.8,454.4,656.5,464.9,658.2,475.8z"/>
				<path class="st12" d="M642.3,610.2l15.8,12.3c-8.3,10.7-17.6,20.5-27.9,29.3l-13-15.2C626.5,628.7,634.9,619.8,642.3,610.2z"/>
				<path class="st6" d="M657.8,132.3l-7.9,18.4c-23.4-10-47.9-17.8-73.4-23l4-19.6C607.3,113.6,633.2,121.8,657.8,132.3z"/>
				<path class="st1" d="M643.3,666.9l13,15.2c-12.3,10.5-25.6,19.9-39.9,27.8l-9.7-17.5C619.8,685.1,632.1,676.6,643.3,666.9z"/>
				<path class="st11" d="M645.6,762.3l9.7,17.5c-18.8,10.4-38.7,19-59.5,25.6l-6-19.1C609.4,780.2,628,772.1,645.6,762.3z"/>
				<path class="st9" d="M635.6,535.1l19.4,5c-2.7,10.6-6.5,20.8-11.3,30.4l-18-8.8C629.9,553.3,633.2,544.4,635.6,535.1z"/>
				<path class="st11" d="M652.8,404.8l-17,10.6c-5.7-9.2-12.4-17.8-19.8-25.6l14.5-13.8C638.8,384.8,646.3,394.4,652.8,404.8z"/>
				<path class="st12" d="M650.1,444.4l-18.8,6.9c-3.3-8.9-7.5-17.5-12.5-25.4l17-10.6C641.5,424.5,646.3,434.2,650.1,444.4z"/>
				<path class="st2" d="M649.9,150.7l-7.9,18.4c-22.1-9.5-45.4-16.9-69.5-21.8l4-19.6C602,132.9,626.5,140.7,649.9,150.7z"/>
				<path class="st0" d="M648.5,286.6L637.1,303c-13.2-9.2-27.5-17.2-42.5-23.6l7.9-18.4C618.8,268,634.2,276.6,648.5,286.6z"/>
				<path class="st11" d="M635.9,744.9l9.7,17.5c-17.6,9.8-36.3,17.9-55.8,24l-6-19.1C602.1,761.5,619.5,754,635.9,744.9z"/>
				<path class="st0" d="M645,362.2L630.5,376c-8.4-8.8-17.6-16.8-27.6-23.7l11.4-16.4C625.4,343.6,635.7,352.4,645,362.2z"/>
				<path class="st7" d="M643.7,958l0,0.1c-30.5,9.6-62.4,16.2-95.2,19.5v0l-2-19.9c31.4-3.2,62-9.5,91.2-18.6L643.7,958z"/>
				<path class="st11" d="M625.7,561.7l18,8.8c-4.8,9.8-10.5,19-17.1,27.5l-15.8-12.2C616.5,578.3,621.5,570.2,625.7,561.7z"/>
				<path class="st1" d="M630.3,651.8l13,15.2c-11.2,9.7-23.5,18.2-36.5,25.5l-9.7-17.5C608.9,668.3,620,660.5,630.3,651.8z"/>
				<path class="st12" d="M626.5,597.9l15.8,12.2c-7.5,9.6-15.9,18.5-25.1,26.4l-13-15.2C612.4,614.4,619.9,606.5,626.5,597.9z"/>
				<path class="st11" d="M642,169.1l-7.9,18.4c-20.9-9-42.9-15.9-65.7-20.6l4-19.6C596.6,152.2,619.9,159.6,642,169.1z"/>
				<path class="st14" d="M640,500c0,2.4-0.1,4.7-0.2,7.1l-20-1c0.1-2,0.2-4,0.2-6.1c0-6.2-0.5-12.3-1.4-18.2l19.8-3
					C639.5,485.7,640,492.8,640,500z"/>
				<path class="st15" d="M619.8,506.1l20,1c-0.5,9.6-1.9,19-4.3,28l-19.4-5C618.2,522.3,619.4,514.3,619.8,506.1z"/>
				<path class="st16" d="M638.4,478.8l-19.8,3c-1.2-8.1-3.3-16-6.1-23.5l18.8-7C634.6,460.1,637,469.3,638.4,478.8z"/>
				<path class="st6" d="M631.8,919.9l6,19.1c-29.3,9.2-59.8,15.5-91.2,18.6l-2-19.9C574.6,934.8,603.8,928.7,631.8,919.9z"/>
				<path class="st0" d="M637.1,303l-11.4,16.4c-12.1-8.5-25.2-15.7-38.9-21.6l7.9-18.4C609.7,285.8,623.9,293.8,637.1,303z"/>
				<path class="st11" d="M626.2,727.4l9.7,17.5c-16.4,9.1-33.8,16.7-52.1,22.4l-6-19.1C594.8,742.8,611,735.8,626.2,727.4z"/>
				<path class="st11" d="M635.8,415.4l-17,10.6c-5-8-10.9-15.5-17.4-22.4l14.5-13.8C623.4,397.6,630.1,406.2,635.8,415.4z"/>
				<path class="st16" d="M616.2,530.1l19.4,5c-2.4,9.3-5.7,18.2-9.8,26.6l-18-8.8C611.3,545.6,614.2,538,616.2,530.1z"/>
				<path class="st11" d="M634.1,187.5l-7.9,18.4c-19.7-8.5-40.3-15-61.8-19.4l4-19.6C591.3,171.6,613.2,178.5,634.1,187.5z"/>
				<path class="st5" d="M625.8,900.8l6,19.1c-28,8.8-57.2,14.8-87.2,17.9l-2-19.9C571.2,915,599,909.2,625.8,900.8z"/>
				<path class="st17" d="M631.3,451.4l-18.8,7c-2.8-7.7-6.4-15-10.7-21.8l17-10.6C623.8,433.9,628,442.4,631.3,451.4z"/>
				<path class="st0" d="M630.5,376L616,389.8c-7.4-7.8-15.7-14.9-24.6-21.1l11.4-16.4C612.8,359.2,622.1,367.2,630.5,376z"/>
				<path class="st1" d="M617.3,636.6l13,15.2c-10.2,8.8-21.3,16.6-33.2,23.2l-9.7-17.5C598,651.5,608,644.5,617.3,636.6z"/>
				<path class="st18" d="M610.7,585.7l15.8,12.2c-6.6,8.5-14.1,16.4-22.3,23.5l-13-15.2C598.4,600.1,604.9,593.2,610.7,585.7z"/>
				<path class="st11" d="M626.2,205.9l-7.9,18.4c-18.4-7.9-37.8-14.1-57.9-18.2l4-19.6C585.9,190.9,606.6,197.4,626.2,205.9z"/>
				<path class="st11" d="M616.5,709.9l9.7,17.5c-15.2,8.5-31.4,15.5-48.4,20.8l-6-19.1C587.5,724.2,602.4,717.7,616.5,709.9z"/>
				<path class="st4" d="M619.8,881.8l6,19.1c-26.7,8.4-54.6,14.1-83.3,17l-2-19.9C567.8,895.2,594.3,889.7,619.8,881.8z"/>
				<path class="st14" d="M607.8,552.8l18,8.8c-4.2,8.5-9.2,16.6-15,24l-15.8-12.3C599.8,567.1,604.2,560.2,607.8,552.8z"/>
				<path class="st0" d="M625.7,319.4l-11.4,16.4c-11-7.7-22.9-14.3-35.4-19.7l7.9-18.4C600.5,303.7,613.6,311,625.7,319.4z"/>
				<path class="st5" d="M620,500c0,2,0,4.1-0.2,6.1l-20-1c0.1-1.7,0.1-3.4,0.1-5.1c0-5.1-0.4-10.2-1.1-15.1l19.8-3
					C619.5,487.8,620,493.8,620,500z"/>
				<path class="st5" d="M599.9,505.1l20,1c-0.4,8.3-1.7,16.3-3.7,24l-19.4-5C598.5,518.6,599.5,511.9,599.9,505.1z"/>
				<path class="st4" d="M613.8,862.7l6,19.1c-25.4,8-52,13.5-79.3,16.2l-2-19.9C564.4,875.5,589.6,870.3,613.8,862.7z"/>
				<path class="st14" d="M618.8,425.9l-17,10.6c-4.3-6.9-9.3-13.3-14.9-19.2l14.5-13.8C608,410.4,613.8,417.9,618.8,425.9z"/>
				<path class="st7" d="M618.6,481.8l-19.8,3c-1-6.8-2.7-13.3-5.1-19.6l18.8-7C615.3,465.8,617.4,473.7,618.6,481.8z"/>
				<path class="st11" d="M618.3,224.3l-7.9,18.4c-17.2-7.4-35.3-13.1-54.1-17l4-19.6C580.5,210.2,599.9,216.3,618.3,224.3z"/>
				<path class="st1" d="M604.2,621.4l13,15.2c-9.2,7.9-19.2,14.9-29.9,20.8l-9.7-17.5C587.2,634.6,596,628.4,604.2,621.4z"/>
				<path class="st11" d="M606.8,692.4l9.7,17.5c-14.1,7.8-29,14.3-44.6,19.2l-6-19.1C580.2,705.5,593.9,699.6,606.8,692.4z"/>
				<path class="st4" d="M596.8,525.1l19.4,5c-2,7.9-4.9,15.6-8.4,22.8l-18-8.8C592.8,538,595.1,531.7,596.8,525.1z"/>
				<path class="st0" d="M616,389.8l-14.5,13.8c-6.5-6.9-13.7-13-21.5-18.5l11.4-16.4C600.3,374.9,608.5,381.9,616,389.8z"/>
				<path class="st0" d="M614.3,335.8l-11.4,16.4c-9.9-6.9-20.6-12.9-31.8-17.7l7.9-18.4C591.4,321.5,603.2,328.1,614.3,335.8z"/>
				<path class="st19" d="M607.8,843.6l6,19.1c-24.2,7.6-49.4,12.8-75.3,15.4l-2-19.9C561,855.7,584.9,850.8,607.8,843.6z"/>
				<path class="st20" d="M612.5,458.3l-18.8,7c-2.4-6.4-5.4-12.5-8.9-18.2l17-10.6C606.1,443.4,609.7,450.6,612.5,458.3z"/>
				<path class="st3" d="M594.9,573.5l15.8,12.3c-5.8,7.5-12.4,14.4-19.5,20.5l-13-15.2C584.3,585.8,589.9,579.9,594.9,573.5z"/>
				<path class="st11" d="M610.5,242.6l-7.9,18.4c-16-6.9-32.8-12.2-50.2-15.7l4-19.6C575.2,229.5,593.3,235.2,610.5,242.6z"/>
				<path class="st0" d="M601.8,824.5l6,19.1c-22.9,7.2-46.8,12.1-71.4,14.6l-2-19.9C557.6,836,580.2,831.3,601.8,824.5z"/>
				<path class="st4" d="M589.8,544l18,8.8c-3.6,7.3-7.9,14.2-12.9,20.6l-15.8-12.2C583.2,555.9,586.8,550.2,589.8,544z"/>
				<path class="st11" d="M597.1,674.9l9.7,17.5c-12.9,7.2-26.6,13.1-40.9,17.6l-6-19.1C572.9,686.8,585.3,681.4,597.1,674.9z"/>
				<path class="st1" d="M591.2,606.2l13,15.2c-8.2,7-17.1,13.2-26.6,18.5l-9.7-17.5C576.3,617.8,584,612.4,591.2,606.2z"/>
				<path class="st0" d="M602.8,352.3l-11.4,16.4c-8.8-6.2-18.3-11.5-28.3-15.7l7.9-18.4C582.3,339.4,592.9,345.3,602.8,352.3z"/>
				<path class="st11" d="M602.6,261l-7.9,18.4c-14.7-6.3-30.3-11.2-46.3-14.5l4-19.6C569.8,248.8,586.6,254.1,602.6,261z"/>
				<path class="st4" d="M601.8,436.5l-17,10.6c-3.6-5.8-7.8-11.1-12.4-16l14.5-13.8C592.5,423.2,597.5,429.6,601.8,436.5z"/>
				<path class="st0" d="M595.8,805.4l6,19.1c-21.6,6.8-44.2,11.5-67.4,13.8l-2-19.9C554.3,816.2,575.5,811.8,595.8,805.4z"/>
				<path class="st16" d="M601.5,403.5L587,417.3c-5.6-5.9-11.8-11.2-18.4-15.8l11.4-16.4C587.8,390.5,595,396.7,601.5,403.5z"/>
				<path class="st5" d="M600,500c0,1.7,0,3.4-0.1,5.1l-20-1c0.1-1.3,0.1-2.7,0.1-4c0-4.1-0.3-8.2-0.9-12.1l19.8-3
					C599.6,489.8,600,494.9,600,500z"/>
				<path class="st5" d="M579.9,504l20,1c-0.3,6.9-1.4,13.6-3,20l-19.4-5C578.8,514.9,579.6,509.5,579.9,504z"/>
				<path class="st7" d="M598.9,484.9l-19.8,3c-0.8-5.4-2.2-10.7-4.1-15.7l18.8-6.9C596.1,471.5,597.8,478.1,598.9,484.9z"/>
				<path class="st11" d="M587.4,657.4l9.7,17.5c-11.7,6.5-24.2,11.9-37.2,16l-6-19.1C565.6,668.1,576.8,663.3,587.4,657.4z"/>
				<path class="st5" d="M577.5,520.1l19.4,5c-1.7,6.6-4.1,13-7,19l-18-8.8C574.2,530.4,576.1,525.4,577.5,520.1z"/>
				<path class="st6" d="M596.6,29.7l0,0.1l-4,19.5C562.7,43.2,531.7,40,500,40V20C533.1,20,565.4,23.4,596.6,29.7z"/>
				<path class="st9" d="M589.8,786.3l6,19.1c-20.4,6.4-41.6,10.8-63.4,13l-2-19.9C550.9,796.4,570.8,792.3,589.8,786.3z"/>
				<path class="st6" d="M579.1,561.2l15.8,12.2c-5,6.4-10.6,12.3-16.7,17.6l-13-15.2C570.3,571.5,574.9,566.6,579.1,561.2z"/>
				<path class="st11" d="M594.7,279.4l-7.9,18.4c-13.5-5.8-27.7-10.3-42.5-13.3l4-19.6C564.4,268.1,579.9,273.1,594.7,279.4z"/>
				<path class="st6" d="M593.8,465.3l-18.8,6.9c-1.9-5.1-4.3-10-7.1-14.5l17-10.6C588.4,452.8,591.4,458.9,593.8,465.3z"/>
				<path class="st7" d="M592.6,49.3l-4,19.6C560,63.1,530.3,60,500,60V40C531.7,40,562.7,43.2,592.6,49.3z"/>
				<path class="st0" d="M591.4,368.7L580,385.1c-7.7-5.4-16-10-24.8-13.8l7.9-18.4C573.1,357.2,582.6,362.5,591.4,368.7z"/>
				<path class="st15" d="M578.2,591l13,15.2c-7.2,6.2-14.9,11.6-23.2,16.2l-9.7-17.5C565.4,601,572,596.3,578.2,591z"/>
				<path class="st9" d="M583.8,767.2l6,19.1c-19.1,6-39,10.1-59.5,12.2l-2-19.9C547.5,776.7,566,772.8,583.8,767.2z"/>
				<path class="st7" d="M571.8,535.2l18,8.8c-3,6.1-6.6,11.8-10.7,17.2L563.3,549C566.6,544.7,569.4,540.1,571.8,535.2z"/>
				<path class="st7" d="M588.6,68.9l-4,19.6C557.3,82.9,529,80,500,80V60C530.3,60,560,63.1,588.6,68.9z"/>
				<path class="st11" d="M577.7,639.9l9.7,17.5c-10.5,5.9-21.7,10.7-33.5,14.4l-6-19.1C558.3,649.4,568.3,645.1,577.7,639.9z"/>
				<path class="st7" d="M587,417.3l-14.5,13.8c-4.7-4.9-9.8-9.3-15.3-13.2l11.4-16.4C575.2,406.1,581.4,411.5,587,417.3z"/>
				<path class="st11" d="M586.8,297.8l-7.9,18.4c-12.3-5.3-25.2-9.4-38.6-12.1l4-19.6C559,287.5,573.3,292,586.8,297.8z"/>
				<path class="st4" d="M584.9,447.1l-17,10.6c-2.9-4.6-6.2-8.9-9.9-12.8l14.5-13.8C577.1,436,581.3,441.4,584.9,447.1z"/>
				<path class="st6" d="M584.6,88.5l-4,19.6c-26-5.3-53-8.1-80.5-8.1V80C529,80,557.3,82.9,584.6,88.5z"/>
				<path class="st9" d="M577.8,748.1l6,19.1c-17.8,5.6-36.4,9.4-55.5,11.4l-2-19.9C544.1,756.9,561.3,753.3,577.8,748.1z"/>
				<path class="st6" d="M580.5,108.1l-4,19.6c-24.7-5-50.3-7.7-76.5-7.7v-20C527.6,100,554.5,102.8,580.5,108.1z"/>
				<path class="st3" d="M580,385.1l-11.4,16.4c-6.6-4.6-13.7-8.6-21.2-11.8l7.9-18.4C564,375.1,572.3,379.7,580,385.1z"/>
				<path class="st5" d="M580,500c0,1.4,0,2.7-0.1,4l-20-1c0-1,0.1-2,0.1-3c0-3.1-0.2-6.1-0.7-9.1l19.8-3
					C579.7,491.8,580,495.9,580,500z"/>
				<path class="st5" d="M559.9,503l20,1c-0.3,5.5-1.1,10.9-2.4,16l-19.4-5C559.1,511.2,559.7,507.2,559.9,503z"/>
				<path class="st7" d="M579.1,487.9l-19.8,3c-0.6-4.1-1.7-8-3-11.8l18.8-7C576.9,477.2,578.3,482.5,579.1,487.9z"/>
				<path class="st6" d="M563.3,549l15.8,12.2c-4.1,5.3-8.8,10.3-14,14.7l-13-15.2C556.2,557.2,560,553.3,563.3,549z"/>
				<path class="st11" d="M578.9,316.2l-7.9,18.4c-11.1-4.8-22.7-8.4-34.8-10.9l4-19.6C553.7,306.8,566.6,310.9,578.9,316.2z"/>
				<path class="st5" d="M565.1,575.9l13,15.2c-6.1,5.3-12.8,9.9-19.9,13.9l-9.7-17.5C554.5,584.2,560,580.3,565.1,575.9z"/>
				<path class="st9" d="M571.9,729l6,19.1c-16.5,5.2-33.8,8.8-51.5,10.5l-2-19.9C540.7,737.1,556.6,733.8,571.9,729z"/>
				<path class="st11" d="M568,622.4l9.7,17.5c-9.4,5.2-19.3,9.5-29.8,12.8l-6-19.1C551,630.8,559.7,627,568,622.4z"/>
				<path class="st5" d="M558.1,515l19.4,5c-1.4,5.3-3.3,10.4-5.6,15.2l-18-8.8C555.7,522.8,557.1,519,558.1,515z"/>
				<path class="st2" d="M576.5,127.7l-4,19.6c-23.4-4.8-47.6-7.3-72.5-7.3v-20C526.2,120,551.8,122.7,576.5,127.7z"/>
				<path class="st6" d="M575,472.2l-18.8,7c-1.4-3.8-3.2-7.5-5.4-10.9l17-10.6C570.7,462.2,573.2,467.1,575,472.2z"/>
				<path class="st9" d="M572.5,147.3l-4,19.6c-22.1-4.5-45-6.9-68.5-6.9v-20C524.8,140,549.1,142.5,572.5,147.3z"/>
				<path class="st6" d="M572.5,431.1L558,444.9c-3.7-3.9-7.8-7.5-12.3-10.5l11.4-16.4C562.7,421.8,567.8,426.2,572.5,431.1z"/>
				<path class="st0" d="M565.9,710l6,19.1c-15.3,4.8-31.2,8.1-47.6,9.7l-2-19.9C537.3,717.4,551.9,714.3,565.9,710z"/>
				<path class="st4" d="M553.9,526.4l18,8.8c-2.4,4.9-5.3,9.5-8.6,13.7l-15.8-12.2C549.9,533.5,552.1,530.1,553.9,526.4z"/>
				<path class="st11" d="M571,334.5l-7.9,18.4c-9.8-4.2-20.2-7.5-30.9-9.7l4-19.6C548.3,326.1,559.9,329.8,571,334.5z"/>
				<path class="st6" d="M568.5,401.5l-11.4,16.4c-5.5-3.9-11.4-7.2-17.7-9.8l7.9-18.4C554.8,392.9,561.9,396.9,568.5,401.5z"/>
				<path class="st9" d="M568.5,166.9l-4,19.6c-20.8-4.3-42.4-6.5-64.4-6.5v-20C523.5,160,546.3,162.4,568.5,166.9z"/>
				<path class="st14" d="M558.2,604.9l9.7,17.5c-8.2,4.6-16.9,8.3-26,11.2l-6-19.1C543.7,612.1,551.2,608.9,558.2,604.9z"/>
				<path class="st4" d="M567.9,457.7l-17,10.6c-2.1-3.5-4.6-6.7-7.4-9.6l14.5-13.8C561.7,448.8,565,453.1,567.9,457.7z"/>
				<path class="st0" d="M559.9,690.9l6,19.1c-14,4.4-28.6,7.4-43.6,8.9l-2-19.9C533.9,697.6,547.2,694.9,559.9,690.9z"/>
				<path class="st5" d="M552.1,560.7l13,15.2c-5.1,4.4-10.7,8.3-16.6,11.6l-9.7-17.5C543.6,567.3,548,564.2,552.1,560.7z"/>
				<path class="st0" d="M564.4,186.5l-4,19.6c-19.5-4-39.7-6.1-60.4-6.1v-20C522.1,180,543.6,182.2,564.4,186.5z"/>
				<path class="st4" d="M547.5,536.7l15.8,12.2c-3.3,4.3-7,8.2-11.2,11.7l-13-15.2C542.2,542.9,545,539.9,547.5,536.7z"/>
				<path class="st11" d="M563.1,352.9l-7.9,18.4c-8.6-3.7-17.6-6.6-27-8.5l4-19.6C542.9,345.4,553.3,348.7,563.1,352.9z"/>
				<path class="st0" d="M560.4,206.1l-4,19.6c-18.2-3.7-37.1-5.7-56.4-5.7v-20C520.7,200,540.9,202.1,560.4,206.1z"/>
				<path class="st5" d="M560,500c0,1,0,2-0.1,3l-20-1c0-0.7,0-1.4,0-2c0-2.1-0.2-4.1-0.5-6.1l19.8-3C559.8,493.9,560,496.9,560,500
					z"/>
				<path class="st5" d="M540,502l20,1c-0.2,4.1-0.8,8.1-1.8,12l-19.4-5C539.4,507.5,539.8,504.8,540,502z"/>
				<path class="st0" d="M553.9,671.8l6,19.1c-12.7,4-26,6.7-39.7,8.1l-2-19.9C530.5,677.8,542.5,675.4,553.9,671.8z"/>
				<path class="st7" d="M559.3,490.9l-19.8,3c-0.4-2.7-1.1-5.3-2-7.8l18.8-6.9C557.7,482.9,558.7,486.9,559.3,490.9z"/>
				<path class="st5" d="M548.5,587.5l9.7,17.5c-7,3.9-14.5,7.1-22.3,9.6l-6-19.1C536.5,593.4,542.7,590.7,548.5,587.5z"/>
				<path class="st5" d="M538.7,510l19.4,5c-1,4-2.4,7.8-4.2,11.4l-18-8.8C537.1,515.2,538,512.7,538.7,510z"/>
				<path class="st6" d="M558,444.9l-14.5,13.8c-2.8-2.9-5.9-5.6-9.2-7.9l11.4-16.4C550.2,437.4,554.3,441,558,444.9z"/>
				<path class="st6" d="M557.1,417.9l-11.4,16.4c-4.4-3.1-9.2-5.7-14.2-7.9l7.9-18.4C545.7,410.8,551.6,414.1,557.1,417.9z"/>
				<path class="st0" d="M556.4,225.7l-4,19.6c-16.9-3.4-34.4-5.3-52.3-5.3v-20C519.3,220,538.2,221.9,556.4,225.7z"/>
				<path class="st6" d="M556.3,479.2l-18.8,6.9c-1-2.6-2.2-5-3.6-7.3l17-10.6C553.1,471.7,554.9,475.3,556.3,479.2z"/>
				<path class="st3" d="M555.2,371.3l-7.9,18.4c-7.4-3.2-15.1-5.6-23.2-7.3l4-19.6C537.6,364.8,546.6,367.6,555.2,371.3z"/>
				<path class="st0" d="M547.9,652.7l6,19.1c-11.4,3.6-23.4,6.1-35.7,7.3l-2-19.9C527.1,658.1,537.7,655.9,547.9,652.7z"/>
				<path class="st7" d="M535.9,517.6l18,8.8c-1.8,3.7-4,7.1-6.4,10.3l-15.8-12.3C533.3,522.4,534.7,520.1,535.9,517.6z"/>
				<path class="st0" d="M552.3,245.3l-4,19.6c-15.6-3.2-31.8-4.9-48.3-4.9v-20C517.9,240,535.4,241.8,552.3,245.3z"/>
				<path class="st5" d="M539.1,545.5l13,15.2c-4.1,3.5-8.5,6.6-13.3,9.3l-9.7-17.5C532.7,550.5,536,548.2,539.1,545.5z"/>
				<path class="st4" d="M550.9,468.3l-17,10.6c-1.4-2.3-3.1-4.4-5-6.4l14.5-13.8C546.3,461.6,548.8,464.8,550.9,468.3z"/>
				<path class="st4" d="M548.6,977.5L548.6,977.5c-16,1.6-32.2,2.5-48.6,2.5s-32.6-0.8-48.6-2.4v0l2-19.9
					c15.3,1.5,30.8,2.3,46.5,2.3c15.7,0,31.2-0.8,46.5-2.3L548.6,977.5z"/>
				<path class="st4" d="M538.8,570l9.7,17.5c-5.9,3.3-12.1,6-18.6,8l-6-19.1C529.2,574.7,534.1,572.6,538.8,570z"/>
				<path class="st0" d="M548.3,264.9l-4,19.6c-14.3-2.9-29.1-4.5-44.3-4.5v-20C516.5,260,532.7,261.7,548.3,264.9z"/>
				<path class="st0" d="M541.9,633.6l6,19.1c-10.2,3.2-20.8,5.4-31.7,6.5l-2-19.9C523.7,638.3,533,636.4,541.9,633.6z"/>
				<path class="st20" d="M531.6,524.5l15.8,12.3c-2.5,3.2-5.3,6.2-8.4,8.8l-13-15.2C528.1,528.6,530,526.6,531.6,524.5z"/>
				<path class="st7" d="M547.3,389.7l-7.9,18.4c-6.1-2.6-12.6-4.7-19.3-6l4-19.6C532.2,384.1,540,386.5,547.3,389.7z"/>
				<path class="st4" d="M544.5,937.8l2,19.9c-15.3,1.5-30.8,2.3-46.5,2.3c-15.7,0-31.2-0.8-46.5-2.3l2-19.9
					c14.6,1.5,29.5,2.2,44.5,2.2C515,940,529.9,939.3,544.5,937.8z"/>
				<path class="st7" d="M545.7,434.3l-11.4,16.4c-3.3-2.3-6.9-4.3-10.6-5.9l7.9-18.4C536.5,428.6,541.3,431.3,545.7,434.3z"/>
				<path class="st4" d="M542.5,917.9l2,19.9c-14.6,1.5-29.5,2.2-44.5,2.2c-15,0-29.9-0.8-44.5-2.2l2-19.9c14,1.4,28.1,2.1,42.5,2.1
					C514.3,920,528.5,919.3,542.5,917.9z"/>
				<path class="st12" d="M544.3,284.5l-4,19.6c-13-2.6-26.5-4-40.3-4v-20C515.2,280,530,281.5,544.3,284.5z"/>
				<path class="st6" d="M543.5,458.7L529,472.5c-1.9-2-3.9-3.7-6.1-5.3l11.4-16.4C537.6,453.1,540.7,455.7,543.5,458.7z"/>
				<path class="st4" d="M540.5,898l2,19.9c-14,1.4-28.1,2.1-42.5,2.1c-14.3,0-28.5-0.7-42.5-2.1l2-19.9c13.3,1.4,26.8,2,40.5,2
					C513.7,900,527.2,899.3,540.5,898z"/>
				<path class="st3" d="M535.9,614.5l6,19.1c-8.9,2.8-18.2,4.7-27.8,5.7l-2-19.9C520.3,618.6,528.3,616.9,535.9,614.5z"/>
				<path class="st6" d="M538.5,878.1l2,19.9c-13.3,1.4-26.8,2-40.5,2c-13.7,0-27.2-0.7-40.5-2l2-19.9c12.6,1.3,25.5,1.9,38.5,1.9
					C513,880,525.8,879.3,538.5,878.1z"/>
				<path class="st13" d="M540.3,304l-4,19.6c-11.7-2.4-23.8-3.6-36.2-3.6v-20C513.8,300,527.3,301.4,540.3,304z"/>
				<path class="st5" d="M540,500c0,0.7,0,1.4,0,2l-20-1c0-0.3,0-0.7,0-1c0-1-0.1-2-0.2-3l19.8-3C539.8,495.9,540,497.9,540,500z"/>
				<path class="st5" d="M520,501l20,1c-0.1,2.8-0.5,5.4-1.2,8l-19.4-5C519.7,503.7,519.9,502.4,520,501z"/>
				<path class="st4" d="M539.5,493.9l-19.8,3c-0.2-1.4-0.6-2.7-1-3.9l18.8-6.9C538.5,488.6,539.1,491.2,539.5,493.9z"/>
				<path class="st6" d="M539.4,408.1l-7.9,18.4c-4.9-2.1-10.1-3.8-15.4-4.9l4-19.6C526.8,403.4,533.3,405.4,539.4,408.1z"/>
				<path class="st5" d="M526,530.3l13,15.2c-3.1,2.6-6.4,5-10,6.9l-9.7-17.5C521.8,533.7,524,532.1,526,530.3z"/>
				<path class="st4" d="M529.1,552.5l9.7,17.5c-4.7,2.6-9.7,4.8-14.9,6.4l-6-19.1C521.9,556,525.6,554.4,529.1,552.5z"/>
				<path class="st5" d="M519.4,505l19.4,5c-0.7,2.6-1.6,5.2-2.8,7.6l-17.9-8.8C518.5,507.6,519,506.3,519.4,505z"/>
				<path class="st2" d="M536.4,858.2l2,19.9c-12.6,1.3-25.5,1.9-38.5,1.9c-13,0-25.8-0.7-38.5-1.9l2-19.9c12,1.2,24.1,1.8,36.4,1.8
					C512.3,860,524.4,859.4,536.4,858.2z"/>
				<path class="st5" d="M537.5,486.1l-18.8,6.9c-0.5-1.3-1.1-2.5-1.8-3.6l17-10.6C535.4,481.1,536.6,483.5,537.5,486.1z"/>
				<path class="st0" d="M534.4,838.3l2,19.9c-12,1.2-24.1,1.8-36.4,1.8c-12.3,0-24.4-0.6-36.4-1.8l2-19.9
					c11.3,1.1,22.8,1.7,34.4,1.7S523.1,839.4,534.4,838.3z"/>
				<path class="st12" d="M536.2,323.6l-4,19.6c-10.4-2.1-21.2-3.2-32.2-3.2v-20C512.4,320,524.5,321.3,536.2,323.6z"/>
				<path class="st6" d="M529.9,595.4l6,19.1c-7.6,2.4-15.6,4-23.8,4.9l-2-19.9C517,598.8,523.6,597.4,529.9,595.4z"/>
				<path class="st20" d="M518,508.8l17.9,8.8c-1.2,2.4-2.6,4.7-4.3,6.9l-15.8-12.2C516.6,511.2,517.4,510,518,508.8z"/>
				<path class="st9" d="M532.4,818.4l2,19.9c-11.3,1.1-22.8,1.7-34.4,1.7s-23.1-0.6-34.4-1.7l2-19.9c10.6,1.1,21.5,1.6,32.4,1.6
					S521.7,819.5,532.4,818.4z"/>
				<path class="st7" d="M534.3,450.8l-11.4,16.4c-2.2-1.5-4.6-2.9-7.1-3.9l7.9-18.4C527.4,446.5,531,448.4,534.3,450.8z"/>
				<path class="st5" d="M534,478.8l-17,10.6c-0.7-1.2-1.5-2.2-2.5-3.2l14.5-13.8C530.8,474.4,532.5,476.5,534,478.8z"/>
				<path class="st9" d="M530.3,798.5l2,19.9c-10.7,1.1-21.5,1.6-32.4,1.6s-21.7-0.5-32.4-1.6l2-19.9c10,1,20.1,1.5,30.4,1.5
					S520.4,799.5,530.3,798.5z"/>
				<path class="st0" d="M532.2,343.2l-4,19.6c-9.1-1.8-18.5-2.8-28.2-2.8v-20C511,340,521.8,341.1,532.2,343.2z"/>
				<path class="st7" d="M515.8,512.2l15.8,12.2c-1.7,2.1-3.5,4.1-5.6,5.9l-13-15.2C514,514.3,515,513.3,515.8,512.2z"/>
				<path class="st6" d="M531.5,426.5l-7.9,18.4c-3.7-1.6-7.6-2.8-11.6-3.6l4-19.6C521.5,422.7,526.6,424.4,531.5,426.5z"/>
				<path class="st0" d="M528.3,778.6l2,19.9c-10,1-20.1,1.5-30.3,1.5s-20.4-0.5-30.4-1.5l2-19.9c9.3,0.9,18.8,1.4,28.3,1.4
					S519,779.5,528.3,778.6z"/>
				<path class="st20" d="M524,576.3l6,19.1c-6.4,2-13,3.4-19.8,4l-2-19.9C513.6,579,518.9,578,524,576.3z"/>
				<path class="st5" d="M519.4,535l9.7,17.5c-3.5,2-7.3,3.6-11.2,4.8l-6-19.1C514.6,537.4,517.1,536.3,519.4,535z"/>
				<path class="st6" d="M529,472.5l-14.5,13.8c-0.9-1-2-1.9-3.1-2.6l11.4-16.4C525.1,468.7,527.1,470.5,529,472.5z"/>
				<path class="st9" d="M526.3,758.7l2,19.9c-9.3,0.9-18.8,1.4-28.3,1.4s-19-0.5-28.3-1.4l2-19.9c8.6,0.9,17.4,1.3,26.3,1.3
					S517.7,759.5,526.3,758.7z"/>
				<path class="st17" d="M528.2,362.8l-4,19.6c-7.8-1.6-15.9-2.4-24.2-2.4v-20C509.6,360,519.1,361,528.2,362.8z"/>
				<path class="st0" d="M524.3,738.8l2,19.9c-8.7,0.9-17.4,1.3-26.3,1.3s-17.7-0.5-26.3-1.3l2-19.9c8,0.8,16.1,1.2,24.3,1.2
					S516.3,739.6,524.3,738.8z"/>
				<path class="st5" d="M513,515.2l13,15.2c-2,1.8-4.3,3.3-6.6,4.6l-9.7-17.5C510.9,516.8,512,516,513,515.2z"/>
				<path class="st0" d="M522.3,718.9l2,19.9c-8,0.8-16.1,1.2-24.3,1.2s-16.3-0.4-24.3-1.2l2-19.9c7.3,0.7,14.7,1.1,22.3,1.1
					S514.9,719.6,522.3,718.9z"/>
				<path class="st21" d="M524.2,382.4l-4,19.6c-6.5-1.3-13.2-2-20.1-2v-20C508.3,380,516.3,380.8,524.2,382.4z"/>
				<path class="st6" d="M518,557.3l6,19.1c-5.1,1.6-10.4,2.7-15.9,3.3l-2-19.9C510.2,559.3,514.2,558.5,518,557.3z"/>
				<path class="st6" d="M523.7,444.9l-7.9,18.4c-2.5-1.1-5-1.9-7.7-2.4l4-19.6C516.1,442,520,443.3,523.7,444.9z"/>
				<path class="st6" d="M522.8,467.2l-11.4,16.4c-1.1-0.8-2.3-1.4-3.5-2l7.9-18.4C518.3,464.3,520.6,465.6,522.8,467.2z"/>
				<path class="st0" d="M520.2,699l2,19.9c-7.3,0.7-14.7,1.1-22.3,1.1s-14.9-0.4-22.3-1.1l2-19.9c6.7,0.7,13.4,1,20.2,1
					S513.6,699.7,520.2,699z"/>
				<path class="st0" d="M518.2,679.1l2,19.9c-6.6,0.7-13.4,1-20.2,1s-13.6-0.3-20.2-1l2-19.9c6,0.6,12.1,0.9,18.2,0.9
					S512.2,679.7,518.2,679.1z"/>
				<path class="st20" d="M520.1,402l-4,19.6c-5.2-1.1-10.6-1.6-16.1-1.6v-20C506.9,400,513.6,400.7,520.1,402z"/>
				<path class="st5" d="M520,500c0,0.3,0,0.7,0,1l-20-1l19.8-3C519.9,498,520,499,520,500z"/>
				<path class="st5" d="M500,500l20,1c-0.1,1.4-0.3,2.7-0.6,4L500,500z"/>
				<path class="st7" d="M519.8,497l-19.8,3l18.8-7C519.2,494.3,519.6,495.6,519.8,497z"/>
				<path class="st5" d="M509.7,517.5l9.7,17.5c-2.3,1.3-4.8,2.4-7.4,3.2l-6-19.1C507.3,518.7,508.5,518.1,509.7,517.5z"/>
				<path class="st5" d="M500,500l19.4,5c-0.3,1.3-0.8,2.6-1.4,3.8L500,500z"/>
				<path class="st6" d="M518.8,493l-18.8,7l17-10.6C517.7,490.5,518.3,491.8,518.8,493z"/>
				<path class="st0" d="M516.2,659.2l2,19.9c-6,0.6-12.1,0.9-18.2,0.9s-12.2-0.3-18.2-0.9l2-19.9c5.3,0.5,10.7,0.8,16.2,0.8
					S510.9,659.7,516.2,659.2z"/>
				<path class="st20" d="M512,538.2l6,19.1c-3.8,1.2-7.8,2-11.9,2.4l-2-19.9C506.8,539.5,509.4,539,512,538.2z"/>
				<path class="st7" d="M500,500l18,8.8c-0.6,1.2-1.3,2.4-2.2,3.4L500,500z"/>
				<path class="st5" d="M517,489.4L500,500l14.5-13.8C515.4,487.2,516.3,488.3,517,489.4z"/>
				<path class="st12" d="M514.2,639.3l2,19.9c-5.3,0.5-10.7,0.8-16.2,0.8s-10.9-0.3-16.2-0.8l2-19.9c4.6,0.5,9.4,0.7,14.2,0.7
					S509.5,639.8,514.2,639.3z"/>
				<path class="st20" d="M516.1,421.6l-4,19.6c-3.9-0.8-7.9-1.2-12.1-1.2v-20C505.5,420,510.9,420.6,516.1,421.6z"/>
				<path class="st6" d="M500,500l15.8,12.2c-0.8,1.1-1.8,2.1-2.8,2.9L500,500z"/>
				<path class="st6" d="M515.8,463.2l-7.9,18.4c-1.2-0.5-2.5-0.9-3.9-1.2l4-19.6C510.7,461.4,513.3,462.2,515.8,463.2z"/>
				<path class="st6" d="M511.4,483.6c1.1,0.8,2.1,1.6,3.1,2.6L500,500L511.4,483.6z"/>
				<path class="st22" d="M512.1,619.4l2,19.9c-4.6,0.5-9.4,0.7-14.2,0.7s-9.5-0.2-14.2-0.7l2-19.9c4,0.4,8,0.6,12.1,0.6
					S508.1,619.8,512.1,619.4z"/>
				<path class="st5" d="M500,500l13,15.2c-1,0.9-2.1,1.7-3.3,2.3L500,500z"/>
				<path class="st23" d="M510.1,599.5l2,19.9c-4,0.4-8,0.6-12.1,0.6s-8.1-0.2-12.1-0.6l2-19.9c3.3,0.3,6.7,0.5,10.1,0.5
					S506.8,599.8,510.1,599.5z"/>
				<path class="st7" d="M512.1,441.2l-4,19.6c-2.6-0.5-5.3-0.8-8-0.8v-20C504.1,440,508.2,440.4,512.1,441.2z"/>
				<path class="st20" d="M506,519.1l6,19.1c-2.5,0.8-5.2,1.4-7.9,1.6l-2-19.9C503.4,519.8,504.7,519.5,506,519.1z"/>
				<path class="st7" d="M511.4,483.6L500,500l7.9-18.4C509.1,482.2,510.3,482.8,511.4,483.6z"/>
				<path class="st6" d="M508.1,579.6l2,19.9c-3.3,0.3-6.7,0.5-10.1,0.5s-6.8-0.2-10.1-0.5l2-19.9c2.7,0.3,5.4,0.4,8.1,0.4
					S505.4,579.9,508.1,579.6z"/>
				<path class="st5" d="M500,500l9.7,17.5c-1.2,0.7-2.4,1.2-3.7,1.6L500,500z"/>
				<path class="st4" d="M506.1,559.7l2,19.9c-2.7,0.3-5.4,0.4-8.1,0.4s-5.4-0.1-8.1-0.4l2-19.9c2,0.2,4,0.3,6.1,0.3
					S504.1,559.9,506.1,559.7z"/>
				<path class="st7" d="M508,460.8l-4,19.6c-1.3-0.3-2.6-0.4-4-0.4v-20C502.8,460,505.5,460.3,508,460.8z"/>
				<path class="st6" d="M507.9,481.6L500,500l4-19.6C505.4,480.7,506.7,481.1,507.9,481.6z"/>
				<path class="st4" d="M504,539.8l2,19.9c-2,0.2-4,0.3-6.1,0.3s-4.1-0.1-6.1-0.3l2-19.9c1.3,0.1,2.7,0.2,4,0.2
					S502.7,539.9,504,539.8z"/>
				<path class="st6" d="M500,500l6,19.1c-1.3,0.4-2.6,0.7-4,0.8L500,500z"/>
				<path class="st4" d="M502,519.9l2,19.9c-1.3,0.1-2.7,0.2-4,0.2s-2.7-0.1-4-0.2l2-19.9c0.7,0.1,1.3,0.1,2,0.1
					S501.4,520,502,519.9z"/>
				<path class="st6" d="M504,480.4l-4,19.6v-20C501.4,480,502.7,480.1,504,480.4z"/>
				<path class="st4" d="M500,500l2,19.9c-0.7,0.1-1.3,0.1-2,0.1s-1.4,0-2-0.1L500,500z"/>
				<path class="st6" d="M500,480v20l-4-19.6C497.3,480.1,498.6,480,500,480z"/>
				<path class="st6" d="M500,460v20c-1.4,0-2.7,0.1-4,0.4l-4-19.6C494.5,460.3,497.2,460,500,460z"/>
				<path class="st7" d="M500,440v20c-2.8,0-5.5,0.3-8,0.8l-4-19.6C491.8,440.4,495.9,440,500,440z"/>
				<path class="st6" d="M500,420v20c-4.1,0-8.2,0.4-12.1,1.2l-4-19.6C489.1,420.6,494.5,420,500,420z"/>
				<path class="st6" d="M500,400v20c-5.5,0-10.9,0.6-16.1,1.6l-4-19.6C486.4,400.7,493.1,400,500,400z"/>
				<path class="st6" d="M500,380v20c-6.9,0-13.6,0.7-20.1,2l-4-19.6C483.6,380.8,491.7,380,500,380z"/>
				<path class="st6" d="M500,120v20c-24.8,0-49.1,2.5-72.5,7.3l-4-19.6C448.2,122.7,473.8,120,500,120z"/>
				<path class="st6" d="M500,100v20c-26.2,0-51.8,2.7-76.5,7.7l-4-19.6C445.5,102.8,472.4,100,500,100z"/>
				<path class="st5" d="M500,80v20c-27.6,0-54.5,2.8-80.5,8.1l-4-19.6C442.8,82.9,471,80,500,80z"/>
				<path class="st4" d="M500,60v20c-29,0-57.3,2.9-84.6,8.5l-4-19.6C440,63.1,469.6,60,500,60z"/>
				<path class="st5" d="M500,40v20c-30.4,0-60,3.1-88.6,8.9l-4-19.6C437.3,43.2,468.3,40,500,40z"/>
				<path class="st6" d="M500,20v20c-31.7,0-62.7,3.2-92.6,9.3l-4-19.5l0-0.1C434.6,23.4,466.9,20,500,20z"/>
				<path class="st6" d="M496,480.4l4,19.6l-7.9-18.4C493.3,481.1,494.6,480.7,496,480.4z"/>
				<path class="st7" d="M492.1,481.6L500,500l-11.4-16.4C489.7,482.8,490.9,482.2,492.1,481.6z"/>
				<path class="st6" d="M488.6,483.6L500,500l-14.5-13.8C486.4,485.2,487.5,484.4,488.6,483.6z"/>
				<path class="st4" d="M500,500l-2,19.9c-1.4-0.1-2.7-0.4-4-0.8L500,500z"/>
				<path class="st5" d="M500,500l-6,19.1c-1.3-0.4-2.5-1-3.7-1.6L500,500z"/>
				<path class="st5" d="M500,500l-9.7,17.5c-1.2-0.6-2.3-1.4-3.3-2.3L500,500z"/>
				<path class="st7" d="M500,500l-13,15.2c-1-0.9-2-1.9-2.8-2.9L500,500z"/>
				<path class="st4" d="M500,500l-15.8,12.2c-0.8-1.1-1.5-2.2-2.1-3.4L500,500z"/>
				<path class="st4" d="M500,500l-18,8.8c-0.6-1.2-1.1-2.5-1.4-3.8L500,500z"/>
				<path class="st5" d="M500,500l-19.4,5c-0.3-1.3-0.5-2.6-0.6-4L500,500z"/>
				<path class="st5" d="M500,500l-20,1c0-0.3,0-0.7,0-1c0-1,0.1-2,0.2-3L500,500z"/>
				<path class="st6" d="M500,500l-19.8-3c0.2-1.4,0.5-2.7,1-3.9L500,500z"/>
				<path class="st6" d="M500,500l-18.8-7c0.5-1.3,1.1-2.5,1.8-3.6L500,500z"/>
				<path class="st6" d="M500,500l-17-10.6c0.7-1.2,1.5-2.2,2.5-3.2L500,500z"/>
				<path class="st4" d="M498,519.9l-2,19.9c-2.7-0.3-5.4-0.8-7.9-1.6l6-19.1C495.3,519.5,496.6,519.8,498,519.9z"/>
				<path class="st6" d="M492,460.8l4,19.6c-1.3,0.3-2.6,0.7-3.9,1.2l-7.9-18.4C486.7,462.2,489.3,461.4,492,460.8z"/>
				<path class="st4" d="M496,539.8l-2,19.9c-4.1-0.4-8.1-1.2-11.9-2.4l6-19.1C490.6,539,493.2,539.5,496,539.8z"/>
				<path class="st4" d="M494,519.1l-6,19.1c-2.6-0.8-5.1-1.9-7.4-3.2l9.7-17.5C491.5,518.1,492.7,518.7,494,519.1z"/>
				<path class="st4" d="M493.9,559.7l-2,19.9c-5.5-0.5-10.8-1.6-15.9-3.3l6-19.1C485.9,558.5,489.8,559.3,493.9,559.7z"/>
				<path class="st7" d="M484.2,463.2l7.9,18.4c-1.3,0.5-2.4,1.2-3.5,2l-11.4-16.4C479.4,465.6,481.7,464.3,484.2,463.2z"/>
				<path class="st6" d="M487.9,441.2l4,19.6c-2.7,0.5-5.3,1.4-7.7,2.4l-7.9-18.4C480,443.3,483.9,442,487.9,441.2z"/>
				<path class="st4" d="M491.9,579.6l-2,19.9c-6.8-0.7-13.5-2.1-19.8-4l6-19.1C481.1,578,486.4,579,491.9,579.6z"/>
				<path class="st5" d="M490.3,517.5l-9.7,17.5c-2.4-1.3-4.6-2.9-6.6-4.6l13-15.2C488,516,489.1,516.8,490.3,517.5z"/>
				<path class="st4" d="M489.9,599.5l-2,19.9c-8.2-0.8-16.2-2.5-23.8-4.9l6-19.1C476.4,597.4,483,598.8,489.9,599.5z"/>
				<path class="st7" d="M477.1,467.2l11.4,16.4c-1.1,0.8-2.1,1.6-3.1,2.6L471,472.5C472.9,470.5,474.9,468.7,477.1,467.2z"/>
				<path class="st5" d="M488,538.2l-6,19.1c-3.9-1.2-7.6-2.8-11.2-4.8l9.7-17.5C482.9,536.3,485.4,537.4,488,538.2z"/>
				<path class="st20" d="M483.9,421.6l4,19.6c-4,0.8-7.9,2-11.6,3.6l-7.9-18.4C473.4,424.4,478.5,422.7,483.9,421.6z"/>
				<path class="st14" d="M487.9,619.4l-2,19.9c-9.6-1-18.9-2.9-27.8-5.7l6-19.1C471.7,616.9,479.7,618.6,487.9,619.4z"/>
				<path class="st6" d="M487,515.2l-13,15.2c-2.1-1.8-3.9-3.7-5.6-5.9l15.8-12.2C485,513.3,486,514.3,487,515.2z"/>
				<path class="st11" d="M485.8,639.3l-2,19.9c-10.9-1.1-21.5-3.3-31.7-6.5l6-19.1C467,636.4,476.3,638.3,485.8,639.3z"/>
				<path class="st6" d="M471,472.5l14.5,13.8c-0.9,1-1.8,2-2.5,3.2l-17-10.6C467.5,476.5,469.1,474.4,471,472.5z"/>
				<path class="st7" d="M476.3,444.9l7.9,18.4c-2.5,1.1-4.9,2.4-7.1,3.9l-11.4-16.4C469,448.4,472.6,446.5,476.3,444.9z"/>
				<path class="st4" d="M484.2,512.2l-15.8,12.2c-1.6-2.1-3.1-4.4-4.3-6.9l18-8.8C482.6,510,483.4,511.2,484.2,512.2z"/>
				<path class="st24" d="M479.9,402l4,19.6c-5.4,1.1-10.5,2.7-15.4,4.9l-7.9-18.4C466.7,405.4,473.2,403.4,479.9,402z"/>
				<path class="st9" d="M483.8,659.2l-2,19.9c-12.3-1.2-24.3-3.7-35.7-7.3l6-19.1C462.3,655.9,472.9,658.1,483.8,659.2z"/>
				<path class="st20" d="M466,478.8l17,10.6c-0.7,1.1-1.3,2.3-1.8,3.6l-18.8-6.9C463.4,483.5,464.6,481.1,466,478.8z"/>
				<path class="st4" d="M482,508.8l-18,8.8c-1.2-2.4-2.1-4.9-2.8-7.6l19.4-5C481,506.3,481.5,507.6,482,508.8z"/>
				<path class="st7" d="M482,557.3l-6,19.1c-5.2-1.6-10.2-3.8-14.9-6.4l9.7-17.5C474.4,554.4,478.1,556,482,557.3z"/>
				<path class="st11" d="M481.8,679.1l-2,19.9c-13.7-1.4-26.9-4.1-39.7-8.1l6-19.1C457.5,675.4,469.5,677.8,481.8,679.1z"/>
				<path class="st6" d="M462.5,486.1l18.8,6.9c-0.5,1.3-0.8,2.6-1,3.9l-19.8-3C460.9,491.2,461.5,488.6,462.5,486.1z"/>
				<path class="st5" d="M480.6,505l-19.4,5c-0.7-2.6-1.1-5.3-1.2-8l20-1C480.1,502.4,480.3,503.7,480.6,505z"/>
				<path class="st5" d="M480.6,535l-9.7,17.5c-3.6-2-6.9-4.3-10-6.9l13-15.2C476,532.1,478.2,533.7,480.6,535z"/>
				<path class="st5" d="M460.5,493.9l19.8,3c-0.2,1-0.2,2-0.2,3c0,0.3,0,0.7,0,1l-20,1c0-0.7,0-1.4,0-2
					C460,497.9,460.2,495.9,460.5,493.9z"/>
				<path class="st20" d="M475.8,382.4l4,19.6c-6.7,1.4-13.2,3.4-19.3,6l-7.9-18.4C460,386.5,467.8,384.1,475.8,382.4z"/>
				<path class="st11" d="M479.8,699l-2,19.9c-15-1.5-29.6-4.5-43.6-8.9l6-19.1C452.8,694.9,466.1,697.6,479.8,699z"/>
				<path class="st11" d="M477.7,718.9l-2,19.9c-16.4-1.6-32.3-4.9-47.6-9.7l6-19.1C448.1,714.3,462.7,717.4,477.7,718.9z"/>
				<path class="st7" d="M465.7,450.8l11.4,16.4c-2.2,1.5-4.3,3.3-6.1,5.3l-14.5-13.8C459.3,455.7,462.4,453.1,465.7,450.8z"/>
				<path class="st7" d="M468.5,426.5l7.9,18.4c-3.8,1.6-7.3,3.6-10.6,5.9l-11.4-16.4C458.7,431.3,463.5,428.6,468.5,426.5z"/>
				<path class="st7" d="M476,576.3l-6,19.1c-6.5-2-12.7-4.7-18.6-8l9.7-17.5C465.9,572.6,470.8,574.7,476,576.3z"/>
				<path class="st16" d="M471.8,362.8l4,19.6c-8,1.6-15.8,4.1-23.2,7.3l-7.9-18.4C453.4,367.6,462.4,364.8,471.8,362.8z"/>
				<path class="st11" d="M475.7,738.8l-2,19.9c-17.8-1.8-35-5.4-51.5-10.5l6-19.1C443.4,733.8,459.3,737.1,475.7,738.8z"/>
				<path class="st6" d="M474,530.3l-13,15.2c-3.1-2.6-5.9-5.6-8.4-8.8l15.8-12.3C470,526.6,471.9,528.6,474,530.3z"/>
				<path class="st11" d="M473.7,758.7l-2,19.9c-19.1-1.9-37.7-5.8-55.5-11.4l6-19.1C438.7,753.3,455.9,756.9,473.7,758.7z"/>
				<path class="st11" d="M467.8,343.2l4,19.6c-9.4,1.9-18.4,4.8-27,8.5l-7.9-18.4C446.7,348.7,457.1,345.4,467.8,343.2z"/>
				<path class="st11" d="M471.7,778.6l-2,19.9c-20.5-2.1-40.4-6.2-59.5-12.2l6-19.1C434,772.8,452.5,776.7,471.7,778.6z"/>
				<path class="st7" d="M456.5,458.7l14.5,13.8c-1.9,1.9-3.5,4.1-5,6.4l-17-10.6C451.2,464.8,453.7,461.6,456.5,458.7z"/>
				<path class="st5" d="M470.9,552.5l-9.7,17.5c-4.8-2.6-9.2-5.7-13.3-9.3l13-15.2C464,548.2,467.3,550.5,470.9,552.5z"/>
				<path class="st4" d="M470.1,595.4l-6,19.1c-7.8-2.5-15.3-5.7-22.3-9.6l9.7-17.5C457.3,590.7,463.5,593.4,470.1,595.4z"/>
				<path class="st11" d="M469.6,798.5l-2,19.9c-21.9-2.2-43.1-6.6-63.4-13l6-19.1C429.3,792.3,449.1,796.4,469.6,798.5z"/>
				<path class="st7" d="M460.6,408.1l7.9,18.4c-5,2.1-9.7,4.8-14.2,7.9l-11.4-16.4C448.4,414.1,454.3,410.8,460.6,408.1z"/>
				<path class="st4" d="M468.4,524.5l-15.8,12.3c-2.5-3.2-4.6-6.6-6.4-10.3l18-8.8C465.3,520.1,466.7,522.4,468.4,524.5z"/>
				<path class="st11" d="M463.8,323.6l4,19.6c-10.7,2.2-21.1,5.5-30.9,9.7l-7.9-18.4C440.1,329.8,451.7,326.1,463.8,323.6z"/>
				<path class="st11" d="M467.6,818.4l-2,19.9c-23.2-2.3-45.8-7-67.4-13.8l6-19.1C424.5,811.8,445.8,816.2,467.6,818.4z"/>
				<path class="st20" d="M449.1,468.3l17,10.6c-1.4,2.3-2.6,4.7-3.6,7.3l-18.8-6.9C445.1,475.3,446.9,471.7,449.1,468.3z"/>
				<path class="st7" d="M454.3,434.3l11.4,16.4c-3.3,2.3-6.4,5-9.2,7.9L442,444.9C445.7,441,449.9,437.4,454.3,434.3z"/>
				<path class="st11" d="M465.6,838.3l-2,19.9c-24.6-2.5-48.5-7.4-71.4-14.6l6-19.1C419.8,831.3,442.4,836,465.6,838.3z"/>
				<path class="st4" d="M464.1,517.6l-18,8.8c-1.8-3.6-3.2-7.4-4.2-11.4l19.4-5C462,512.7,462.9,515.2,464.1,517.6z"/>
				<path class="st16" d="M464.1,614.5l-6,19.1c-9.1-2.9-17.8-6.6-26-11.2l9.7-17.5C448.8,608.9,456.3,612.1,464.1,614.5z"/>
				<path class="st11" d="M459.7,304l4,19.6c-12.1,2.5-23.7,6.1-34.8,10.9l-7.9-18.4C433.4,310.9,446.3,306.8,459.7,304z"/>
				<path class="st10" d="M463.6,858.2l-2,19.9c-26-2.6-51.2-7.8-75.3-15.4l6-19.1C415.1,850.8,439,855.7,463.6,858.2z"/>
				<path class="st6" d="M443.7,479.2l18.8,6.9c-0.9,2.5-1.6,5.1-2,7.8l-19.8-3C441.3,486.9,442.3,482.9,443.7,479.2z"/>
				<path class="st4" d="M461.5,878.1l-2,19.9c-27.3-2.7-53.9-8.2-79.3-16.2l6-19.1C410.4,870.3,435.6,875.5,461.5,878.1z"/>
				<path class="st5" d="M461.3,510l-19.4,5c-1-3.9-1.6-7.9-1.8-12l20-1C460.2,504.8,460.6,507.5,461.3,510z"/>
				<path class="st5" d="M461.2,570l-9.7,17.5c-5.9-3.3-11.5-7.2-16.6-11.6l13-15.2C452,564.2,456.4,567.3,461.2,570z"/>
				<path class="st7" d="M460.9,545.5l-13,15.2c-4.1-3.5-7.8-7.5-11.2-11.7l15.8-12.2C455,539.9,457.8,542.9,460.9,545.5z"/>
				<path class="st7" d="M452.7,389.7l7.9,18.4c-6.3,2.7-12.2,6-17.7,9.8l-11.4-16.4C438.1,396.9,445.2,392.9,452.7,389.7z"/>
				<path class="st5" d="M440.7,490.9l19.8,3c-0.3,2-0.5,4-0.5,6.1c0,0.7,0,1.4,0,2l-20,1c0-1-0.1-2-0.1-3
					C440,496.9,440.2,493.9,440.7,490.9z"/>
				<path class="st11" d="M455.7,284.5l4,19.6c-13.4,2.8-26.3,6.8-38.6,12.1l-7.9-18.4C426.7,292,441,287.5,455.7,284.5z"/>
				<path class="st4" d="M459.5,898l-2,19.9c-28.7-2.9-56.6-8.7-83.3-17l6-19.1C405.7,889.7,432.2,895.2,459.5,898z"/>
				<path class="st9" d="M458.1,633.6l-6,19.1c-10.4-3.3-20.4-7.6-29.8-12.8l9.7-17.5C440.3,627,449,630.8,458.1,633.6z"/>
				<path class="st4" d="M457.5,917.9l-2,19.9c-30.1-3-59.3-9.1-87.2-17.9l6-19.1C401,909.2,428.8,915,457.5,917.9z"/>
				<path class="st6" d="M442,444.9l14.5,13.8c-2.8,2.9-5.3,6.1-7.4,9.6l-17-10.6C435,453.1,438.3,448.8,442,444.9z"/>
				<path class="st11" d="M451.7,264.9l4,19.6c-14.8,3-29,7.5-42.5,13.3l-7.9-18.4C420.1,273.1,435.6,268.1,451.7,264.9z"/>
				<path class="st4" d="M455.5,937.8l-2,19.9c-31.4-3.2-61.9-9.5-91.2-18.6l6-19.1C396.2,928.7,425.4,934.8,455.5,937.8z"/>
				<path class="st6" d="M442.9,417.9l11.4,16.4c-4.4,3.1-8.6,6.6-12.3,10.5l-14.5-13.8C432.2,426.2,437.3,421.8,442.9,417.9z"/>
				<path class="st4" d="M453.5,957.7l-2,19.9v0c-32.8-3.3-64.6-9.9-95.2-19.5l0-0.1l6-19C391.5,948.2,422,954.5,453.5,957.7z"/>
				<path class="st3" d="M444.8,371.3l7.9,18.4c-7.5,3.2-14.6,7.2-21.2,11.8L420,385.1C427.7,379.7,436,375.1,444.8,371.3z"/>
				<path class="st4" d="M452.5,536.7L436.7,549c-3.3-4.3-6.2-8.8-8.6-13.7l18-8.8C447.9,530.1,450.1,533.5,452.5,536.7z"/>
				<path class="st11" d="M452.1,652.7l-6,19.1c-11.7-3.7-22.9-8.5-33.5-14.4l9.7-17.5C431.7,645.1,441.7,649.4,452.1,652.7z"/>
				<path class="st11" d="M447.6,245.3l4,19.6c-16.1,3.3-31.6,8.2-46.4,14.5l-7.9-18.4C413.4,254.1,430.2,248.8,447.6,245.3z"/>
				<path class="st5" d="M451.5,587.5l-9.7,17.5c-7.1-4-13.8-8.6-19.9-13.9l13-15.2C440,580.3,445.5,584.2,451.5,587.5z"/>
				<path class="st20" d="M432.1,457.7l17,10.6c-2.1,3.4-3.9,7.1-5.4,10.9l-18.8-7C426.9,467.1,429.3,462.2,432.1,457.7z"/>
				<path class="st7" d="M447.9,560.7l-13,15.2c-5.1-4.4-9.8-9.3-13.9-14.7l15.8-12.2C440,553.3,443.8,557.2,447.9,560.7z"/>
				<path class="st0" d="M443.6,225.7l4,19.6c-17.4,3.6-34.2,8.9-50.2,15.7l-7.9-18.4C406.8,235.2,424.9,229.5,443.6,225.7z"/>
				<path class="st4" d="M446.1,526.4l-18,8.8c-2.4-4.8-4.3-9.9-5.6-15.2l19.4-5C442.9,519,444.4,522.8,446.1,526.4z"/>
				<path class="st1" d="M446.1,671.8l-6,19.1c-13-4.1-25.5-9.5-37.2-16l9.7-17.5C423.2,663.3,434.4,668.1,446.1,671.8z"/>
				<path class="st0" d="M436.9,352.9l7.9,18.4c-8.8,3.8-17,8.4-24.8,13.8l-11.4-16.4C417.4,362.5,426.9,357.2,436.9,352.9z"/>
				<path class="st6" d="M425,472.2l18.8,7c-1.4,3.8-2.4,7.7-3,11.8l-19.8-3C421.7,482.5,423.1,477.2,425,472.2z"/>
				<path class="st9" d="M439.6,206.1l4,19.6c-18.8,3.8-36.9,9.6-54.1,17l-7.9-18.4C400.1,216.3,419.5,210.2,439.6,206.1z"/>
				<path class="st6" d="M431.5,401.5l11.4,16.4c-5.5,3.9-10.7,8.3-15.4,13.2L413,417.3C418.6,411.5,424.8,406.1,431.5,401.5z"/>
				<path class="st6" d="M427.5,431.1l14.5,13.8c-3.7,3.9-7,8.2-9.9,12.8l-17-10.6C418.7,441.4,422.9,436,427.5,431.1z"/>
				<path class="st5" d="M441.9,515l-19.4,5c-1.3-5.2-2.2-10.5-2.4-16l20-1C440.3,507.2,440.9,511.2,441.9,515z"/>
				<path class="st14" d="M441.8,604.9l-9.7,17.5c-8.3-4.6-16.1-10-23.2-16.2l13-15.2C428,596.3,434.6,601,441.8,604.9z"/>
				<path class="st5" d="M420.9,487.9l19.8,3c-0.4,3-0.7,6-0.7,9.1c0,1,0,2,0.1,3l-20,1c-0.1-1.3-0.1-2.7-0.1-4
					C420,495.9,420.3,491.8,420.9,487.9z"/>
				<path class="st1" d="M440.1,690.9l-6,19.1c-14.3-4.5-28-10.4-40.9-17.6l9.7-17.5C414.6,681.4,427.1,686.8,440.1,690.9z"/>
				<path class="st11" d="M435.6,186.5l4,19.6c-20.1,4.1-39.5,10.2-57.9,18.2l-7.9-18.4C393.4,197.4,414.1,190.9,435.6,186.5z"/>
				<path class="st0" d="M429,334.5l7.9,18.4c-10,4.3-19.5,9.6-28.3,15.7l-11.4-16.4C407.1,345.3,417.8,339.4,429,334.5z"/>
				<path class="st4" d="M436.7,549l-15.8,12.2c-4.1-5.3-7.7-11.1-10.7-17.2l18-8.8C430.6,540.1,433.4,544.7,436.7,549z"/>
				<path class="st11" d="M431.5,166.9l4,19.6c-21.5,4.4-42.1,10.9-61.8,19.4l-7.9-18.4C386.8,178.5,408.8,171.6,431.5,166.9z"/>
				<path class="st7" d="M434.9,575.9l-13,15.2c-6.1-5.3-11.8-11.2-16.7-17.6l15.8-12.2C425.1,566.6,429.7,571.5,434.9,575.9z"/>
				<path class="st1" d="M434.1,710l-6,19.1c-15.6-4.9-30.6-11.3-44.6-19.2l9.7-17.5C406.1,699.6,419.8,705.5,434.1,710z"/>
				<path class="st20" d="M415.1,447.1l17,10.6c-2.8,4.6-5.3,9.4-7.1,14.5l-18.8-6.9C408.6,458.9,411.6,452.8,415.1,447.1z"/>
				<path class="st11" d="M432,622.4l-9.7,17.5c-9.5-5.3-18.4-11.5-26.6-18.5l13-15.2C416,612.4,423.8,617.8,432,622.4z"/>
				<path class="st10" d="M427.5,147.3l4,19.6c-22.8,4.7-44.8,11.6-65.7,20.6l-7.9-18.4C380.1,159.6,403.4,152.2,427.5,147.3z"/>
				<path class="st3" d="M420,385.1l11.4,16.4c-6.7,4.6-12.8,9.9-18.4,15.8l-14.5-13.8C405,396.7,412.2,390.5,420,385.1z"/>
				<path class="st0" d="M421.1,316.2l7.9,18.4c-11.3,4.8-21.9,10.8-31.8,17.7l-11.4-16.4C396.8,328.1,408.6,321.5,421.1,316.2z"/>
				<path class="st4" d="M428.2,535.2l-18,8.8c-3-6-5.3-12.4-7-19l19.4-5C423.9,525.4,425.8,530.4,428.2,535.2z"/>
				<path class="st1" d="M428.1,729l-6,19.1c-16.9-5.3-33.1-12.3-48.4-20.8l9.7-17.5C397.6,717.7,412.5,724.2,428.1,729z"/>
				<path class="st25" d="M423.5,127.7l4,19.6c-24.1,4.9-47.4,12.3-69.5,21.8l-7.9-18.4C373.5,140.7,398,132.9,423.5,127.7z"/>
				<path class="st6" d="M413,417.3l14.5,13.8c-4.6,4.9-8.8,10.3-12.4,16l-17-10.6C402.5,429.6,407.5,423.2,413,417.3z"/>
				<path class="st6" d="M406.2,465.3l18.8,6.9c-1.9,5-3.2,10.3-4.1,15.7l-19.8-3C402.2,478.1,403.9,471.5,406.2,465.3z"/>
				<path class="st4" d="M419.5,108.1l4,19.6c-25.5,5.2-50,13-73.4,23l-7.9-18.4C366.8,121.8,392.6,113.6,419.5,108.1z"/>
				<path class="st5" d="M422.5,520.1l-19.4,5c-1.7-6.4-2.7-13.1-3-20l20-1C420.4,509.5,421.2,514.9,422.5,520.1z"/>
				<path class="st11" d="M422.3,639.9l-9.7,17.5c-10.7-5.9-20.7-12.9-29.9-20.8l13-15.2C404,628.4,412.9,634.6,422.3,639.9z"/>
				<path class="st1" d="M422.1,748.1l-6,19.1c-18.2-5.7-35.6-13.2-52.1-22.4l9.7-17.5C389,735.8,405.2,742.8,422.1,748.1z"/>
				<path class="st16" d="M421.8,591l-13,15.2c-7.2-6.2-13.7-13-19.5-20.5l15.8-12.3C410.1,579.9,415.7,585.8,421.8,591z"/>
				<path class="st0" d="M413.2,297.8l7.9,18.4c-12.5,5.4-24.3,12-35.4,19.7l-11.4-16.4C386.4,311,399.5,303.7,413.2,297.8z"/>
				<path class="st4" d="M420.9,561.2l-15.8,12.2c-5-6.4-9.3-13.3-12.9-20.6l18-8.8C413.2,550.2,416.8,555.9,420.9,561.2z"/>
				<path class="st5" d="M401.1,484.9l19.8,3c-0.6,3.9-0.9,8-0.9,12.1c0,1.4,0,2.7,0.1,4l-20,1c-0.1-1.7-0.1-3.4-0.1-5.1
					C400,494.9,400.4,489.8,401.1,484.9z"/>
				<path class="st0" d="M408.6,368.7l11.4,16.4c-7.8,5.4-15,11.6-21.5,18.5L384,389.8C391.5,381.9,399.7,374.9,408.6,368.7z"/>
				<path class="st4" d="M415.4,88.5l4,19.6c-26.8,5.5-52.7,13.7-77.3,24.2l-7.9-18.4C360.1,102.8,387.3,94.3,415.4,88.5z"/>
				<path class="st1" d="M416.2,767.2l-6,19.1c-19.5-6.1-38.2-14.2-55.8-24l9.7-17.5C380.5,754,397.9,761.5,416.2,767.2z"/>
				<path class="st4" d="M411.4,68.9l4,19.6c-28.2,5.8-55.3,14.3-81.1,25.4l-7.9-18.4C353.5,83.9,381.9,74.9,411.4,68.9z"/>
				<path class="st20" d="M398.2,436.5l17,10.6c-3.6,5.7-6.6,11.8-8.9,18.2l-18.8-7C390.3,450.6,393.9,443.4,398.2,436.5z"/>
				<path class="st0" d="M405.3,279.4l7.9,18.4c-13.8,5.9-26.8,13.2-38.9,21.6L362.9,303C376.1,293.8,390.3,285.8,405.3,279.4z"/>
				<path class="st3" d="M398.5,403.5l14.5,13.8c-5.6,5.9-10.6,12.3-14.9,19.2l-17-10.6C386.2,417.9,392,410.4,398.5,403.5z"/>
				<path class="st11" d="M412.6,657.4l-9.7,17.5c-11.9-6.6-23-14.4-33.2-23.2l13-15.2C392,644.5,402,651.5,412.6,657.4z"/>
				<path class="st4" d="M407.4,49.3l4,19.6c-29.5,6-57.9,15-85,26.6l-7.9-18.4C346.8,65,376.5,55.6,407.4,49.3z"/>
				<path class="st4" d="M410.2,544l-18,8.8c-3.6-7.2-6.4-14.8-8.4-22.8l19.4-5C404.9,531.7,407.3,538,410.2,544z"/>
				<path class="st1" d="M410.2,786.3l-6,19.1c-20.8-6.5-40.8-15.1-59.5-25.6l9.7-17.5C372,772.1,390.6,780.2,410.2,786.3z"/>
				<path class="st0" d="M408.8,606.2l-13,15.2c-8.2-7-15.7-14.9-22.3-23.5l15.8-12.2C395.1,593.2,401.6,600.1,408.8,606.2z"/>
				<path class="st0" d="M397.2,352.3l11.4,16.4c-8.9,6.2-17.1,13.3-24.6,21.1L369.5,376C377.9,367.2,387.2,359.2,397.2,352.3z"/>
				<path class="st4" d="M403.4,29.8l4,19.5c-30.9,6.3-60.6,15.7-88.8,27.8l-7.8-18.3l0-0.1c29.5-12.7,60.5-22.5,92.7-29.1
					L403.4,29.8z"/>
				<path class="st6" d="M387.5,458.3l18.8,7c-2.3,6.3-4,12.8-5.1,19.6l-19.8-3C382.6,473.7,384.7,465.8,387.5,458.3z"/>
				<path class="st9" d="M397.4,261l7.9,18.4c-15,6.4-29.2,14.4-42.4,23.6l-11.4-16.4C365.8,276.6,381.2,268,397.4,261z"/>
				<path class="st14" d="M405.1,573.5l-15.8,12.3c-5.8-7.4-10.8-15.5-15-24l18-8.8C395.8,560.2,400.1,567.1,405.1,573.5z"/>
				<path class="st1" d="M404.2,805.4l-6,19.1c-22.1-6.9-43.3-16.1-63.2-27.2l9.7-17.5C363.4,790.3,383.4,798.9,404.2,805.4z"/>
				<path class="st5" d="M403.2,525.1l-19.4,5c-2-7.7-3.3-15.8-3.6-24l20-1C400.5,511.9,401.5,518.6,403.2,525.1z"/>
				<path class="st11" d="M402.9,674.9l-9.7,17.5c-13-7.3-25.3-15.8-36.5-25.5l13-15.2C380,660.5,391.1,668.3,402.9,674.9z"/>
				<path class="st4" d="M381.4,481.8l19.8,3c-0.8,4.9-1.1,10-1.1,15.1c0,1.7,0,3.4,0.1,5.1l-20,1c-0.1-2-0.2-4-0.2-6.1
					C380,493.8,380.5,487.8,381.4,481.8z"/>
				<path class="st0" d="M384,389.8l14.5,13.8c-6.5,6.8-12.3,14.3-17.4,22.4l-17-10.6C369.9,406.2,376.6,397.6,384,389.8z"/>
				<path class="st1" d="M398.2,824.5l-6,19.1c-23.4-7.3-45.8-17-66.9-28.8l9.7-17.5C354.9,808.4,376.1,817.6,398.2,824.5z"/>
				<path class="st22" d="M381.2,425.9l17,10.6c-4.3,6.8-7.9,14.1-10.7,21.8l-18.8-7C372,442.4,376.2,433.9,381.2,425.9z"/>
				<path class="st0" d="M389.5,242.6l7.9,18.4c-16.3,7-31.6,15.6-46,25.6L340,270.2C355.5,259.4,372,250.1,389.5,242.6z"/>
				<path class="st0" d="M385.7,335.8l11.4,16.4c-10,7-19.3,14.9-27.6,23.7L355,362.2C364.3,352.4,374.6,343.6,385.7,335.8z"/>
				<path class="st9" d="M395.8,621.4l-13,15.2c-9.2-7.9-17.6-16.8-25.1-26.4l15.8-12.2C380.1,606.5,387.6,614.4,395.8,621.4z"/>
				<path class="st11" d="M393.2,692.4l-9.7,17.5c-14.2-7.9-27.6-17.2-39.9-27.8l13-15.2C367.9,676.6,380.2,685.1,393.2,692.4z"/>
				<path class="st14" d="M392.3,552.8l-18,8.8c-4.1-8.4-7.5-17.3-9.8-26.6l19.4-5C385.9,538,388.7,545.6,392.3,552.8z"/>
				<path class="st8" d="M392.2,843.6l-6,19.1c-24.7-7.8-48.4-18-70.7-30.4l9.7-17.5C346.4,826.6,368.8,836.2,392.2,843.6z"/>
				<path class="st0" d="M381.7,224.3l7.9,18.4c-17.5,7.5-34.1,16.8-49.5,27.5l-11.4-16.4C345.1,242.2,362.9,232.3,381.7,224.3z"/>
				<path class="st11" d="M389.3,585.7l-15.8,12.2c-6.6-8.5-12.4-17.7-17.1-27.5l18-8.8C378.5,570.2,383.5,578.3,389.3,585.7z"/>
				<path class="st3" d="M368.7,451.4l18.8,7c-2.8,7.5-4.8,15.4-6.1,23.5l-19.8-3C363,469.3,365.4,460.1,368.7,451.4z"/>
				<path class="st5" d="M386.2,862.7l-6,19.1c-26-8.2-50.9-18.9-74.4-32l9.7-17.5C337.8,844.7,361.5,854.9,386.2,862.7z"/>
				<path class="st0" d="M374.3,319.4l11.4,16.4c-11.1,7.7-21.4,16.6-30.7,26.4l-14.5-13.8C350.8,337.7,362.1,327.9,374.3,319.4z"/>
				<path class="st0" d="M369.5,376l14.5,13.8c-7.4,7.8-14.1,16.4-19.8,25.6l-17-10.6C353.7,394.4,361.2,384.8,369.5,376z"/>
				<path class="st15" d="M383.8,530.1l-19.4,5c-2.3-9-3.8-18.4-4.3-28l20-1C380.6,514.3,381.8,522.3,383.8,530.1z"/>
				<path class="st11" d="M383.5,709.9l-9.7,17.5c-15.4-8.6-29.9-18.7-43.2-30.1l13-15.2C355.9,692.7,369.3,702,383.5,709.9z"/>
				<path class="st0" d="M382.8,636.6l-13,15.2c-10.3-8.8-19.6-18.6-27.9-29.3l15.8-12.3C365.1,619.8,373.5,628.7,382.8,636.6z"/>
				<path class="st0" d="M373.8,205.9l7.9,18.4c-18.8,8.1-36.5,18-53.1,29.5l-11.4-16.4C334.8,225,353.8,214.4,373.8,205.9z"/>
				<path class="st15" d="M361.6,478.8l19.8,3c-0.9,5.9-1.4,12-1.4,18.2c0,2,0,4.1,0.2,6.1l-20,1c-0.1-2.4-0.2-4.7-0.2-7.1
					C360,492.8,360.5,485.7,361.6,478.8z"/>
				<path class="st0" d="M364.2,415.4l17,10.6c-5,8-9.2,16.5-12.5,25.4l-18.8-6.9C353.7,434.2,358.5,424.5,364.2,415.4z"/>
				<path class="st5" d="M380.2,881.8l-6,19.1c-27.3-8.6-53.5-19.9-78.1-33.6l9.7-17.5C329.3,862.8,354.2,873.6,380.2,881.8z"/>
				<path class="st0" d="M362.9,303l11.4,16.4c-12.2,8.5-23.5,18.2-33.8,29L326,334.6C337.2,322.9,349.5,312.3,362.9,303z"/>
				<path class="st11" d="M374.3,561.7l-18,8.8c-4.7-9.6-8.5-19.8-11.3-30.4l19.4-5C366.8,544.4,370.1,553.3,374.3,561.7z"/>
				<path class="st5" d="M374.2,900.8l-6,19.1c-28.6-9-56-20.8-81.8-35.1l9.7-17.5C320.8,881,346.9,892.3,374.2,900.8z"/>
				<path class="st11" d="M373.8,727.4l-9.7,17.5c-16.6-9.2-32.2-20.1-46.5-32.4l13-15.2C343.9,708.7,358.4,718.8,373.8,727.4z"/>
				<path class="st0" d="M365.9,187.5l7.9,18.4c-20,8.6-39,19.2-56.6,31.5l-11.4-16.4C324.5,207.8,344.6,196.6,365.9,187.5z"/>
				<path class="st11" d="M373.5,597.9l-15.8,12.2c-7.4-9.6-13.9-19.9-19.3-30.9l18-8.8C361.1,580.2,366.9,589.4,373.5,597.9z"/>
				<path class="st0" d="M369.7,651.8l-13,15.2c-11.3-9.7-21.6-20.5-30.7-32.3l15.8-12.2C350.1,633.1,359.5,643,369.7,651.8z"/>
				<path class="st0" d="M355,362.2l14.5,13.8c-8.4,8.8-15.8,18.4-22.3,28.8l-17-10.6C337.4,382.7,345.7,372,355,362.2z"/>
				<path class="st0" d="M349.9,444.4l18.8,6.9c-3.3,8.8-5.6,18-7.1,27.4l-19.8-3C343.5,464.9,346.2,454.4,349.9,444.4z"/>
				<path class="st5" d="M368.3,919.9l-6,19.1c-29.9-9.4-58.6-21.8-85.5-36.8l9.7-17.5C312.2,899.1,339.6,911,368.3,919.9z"/>
				<path class="st2" d="M358,169.1l7.9,18.4c-21.3,9.1-41.4,20.4-60.1,33.4l-11.4-16.4C314.2,190.6,335.5,178.8,358,169.1z"/>
				<path class="st1" d="M364.4,535.1l-19.4,5c-2.7-10.3-4.3-21-4.9-32l20-1C360.7,516.7,362.1,526.1,364.4,535.1z"/>
				<path class="st0" d="M347.2,404.8l17,10.6c-5.7,9.1-10.5,18.8-14.3,29.1l-18.8-7C335.4,426,340.8,415,347.2,404.8z"/>
				<path class="st11" d="M364.1,744.9l-9.7,17.5c-17.8-9.9-34.5-21.5-49.8-34.7l13-15.2C331.9,724.8,347.5,735.6,364.1,744.9z"/>
				<path class="st0" d="M351.5,286.6l11.4,16.4c-13.3,9.3-25.7,19.9-36.8,31.6l-14.5-13.8C323.6,308.1,337,296.6,351.5,286.6z"/>
				<path class="st7" d="M362.3,939l-6,19l0,0.1c-31.3-9.8-61.1-22.7-89.3-38.3l0-0.1l9.7-17.4C303.7,917.3,332.3,929.6,362.3,939z"
					/>
				<path class="st1" d="M341.8,475.8l19.8,3c-1,6.9-1.6,14-1.6,21.2c0,2.4,0.1,4.7,0.2,7.1l-20,1c-0.1-2.7-0.2-5.4-0.2-8.1
					C340,491.8,340.6,483.7,341.8,475.8z"/>
				<path class="st25" d="M350.1,150.7l7.9,18.4c-22.5,9.6-43.8,21.5-63.7,35.4l-11.4-16.4C303.9,173.5,326.4,160.9,350.1,150.7z"/>
				<path class="st11" d="M357.7,610.2l-15.8,12.3c-8.3-10.6-15.4-22.1-21.4-34.3l18-8.8C343.8,590.3,350.2,600.6,357.7,610.2z"/>
				<path class="st0" d="M356.7,666.9l-13,15.2c-12.3-10.6-23.5-22.4-33.5-35.2l15.8-12.2C335.1,646.4,345.4,657.2,356.7,666.9z"/>
				<path class="st11" d="M356.3,570.5l-18,8.8c-5.3-10.8-9.6-22.3-12.6-34.2l19.4-5C347.8,550.7,351.6,560.9,356.3,570.5z"/>
				<path class="st0" d="M340.5,348.4l14.5,13.8c-9.3,9.8-17.6,20.5-24.8,32l-17-10.6C321.2,371,330.3,359.2,340.5,348.4z"/>
				<path class="st9" d="M354.4,762.3l-9.7,17.5c-19-10.6-36.8-23-53.1-37.1l13-15.2C319.9,740.8,336.6,752.5,354.4,762.3z"/>
				<path class="st0" d="M340,270.2l11.4,16.4c-14.4,10.1-27.8,21.6-39.9,34.3l-14.5-13.8C310.1,293.4,324.5,281,340,270.2z"/>
				<path class="st7" d="M342.2,132.3l7.9,18.4c-23.8,10.2-46.3,22.8-67.2,37.4l-11.4-16.4C293.5,156.3,317.2,143.1,342.2,132.3z"/>
				<path class="st0" d="M331.2,437.5l18.8,7c-3.7,10-6.5,20.5-8.1,31.3l-19.8-3C323.9,460.5,327,448.7,331.2,437.5z"/>
				<path class="st0" d="M330.3,394.2l17,10.6c-6.4,10.3-11.8,21.2-16.1,32.7l-18.8-7C317.1,417.7,323.1,405.6,330.3,394.2z"/>
				<path class="st1" d="M345.1,540.1l-19.4,5c-3-11.6-4.9-23.6-5.5-36l20-1C340.8,519.1,342.4,529.8,345.1,540.1z"/>
				<path class="st11" d="M344.7,779.8l-9.7,17.5c-20.2-11.2-39.1-24.4-56.4-39.4l13-15.2C307.9,756.8,325.7,769.3,344.7,779.8z"/>
				<path class="st0" d="M343.7,682.1l-13,15.2c-13.3-11.5-25.5-24.2-36.3-38.1l15.8-12.2C320.1,659.7,331.4,671.5,343.7,682.1z"/>
				<path class="st7" d="M334.3,113.9l7.9,18.4c-25,10.7-48.7,23.9-70.8,39.3L260,155.3C283.2,139.1,308.1,125.2,334.3,113.9z"/>
				<path class="st11" d="M341.8,622.4L326,634.7c-9.1-11.7-17-24.3-23.6-37.8l18-8.8C326.4,600.3,333.6,611.8,341.8,622.4z"/>
				<path class="st1" d="M322,472.7l19.8,3c-1.2,7.9-1.8,16-1.8,24.2c0,2.7,0.1,5.4,0.2,8.1l-20,1c-0.1-3-0.2-6.1-0.2-9.1
					C320,490.7,320.7,481.6,322,472.7z"/>
				<path class="st0" d="M326,334.6l14.5,13.8c-10.2,10.8-19.4,22.5-27.3,35.2l-17-10.6C304.9,359.2,314.9,346.4,326,334.6z"/>
				<path class="st0" d="M328.6,253.8l11.4,16.4c-15.5,10.8-30,23.2-43,36.9l-14.5-13.8C296.5,278.6,311.9,265.4,328.6,253.8z"/>
				<path class="st11" d="M338.4,579.3l-18,8.8c-5.9-12-10.6-24.7-14.1-38l19.4-5C328.8,557,333,568.5,338.4,579.3z"/>
				<path class="st11" d="M335,797.3l-9.7,17.5c-21.4-11.9-41.4-25.9-59.8-41.7l13-15.2C295.9,772.9,314.8,786.1,335,797.3z"/>
				<path class="st6" d="M326.4,95.6l7.9,18.4c-26.3,11.3-51.1,25.1-74.3,41.3l-11.4-16.4C272.9,121.9,298.9,107.4,326.4,95.6z"/>
				<path class="st0" d="M312.4,430.5l18.8,7c-4.2,11.3-7.3,23.1-9.1,35.3l-19.8-3C304.3,456.1,307.8,443,312.4,430.5z"/>
				<path class="st0" d="M330.6,697.3l-13,15.2c-14.3-12.3-27.4-26.1-39-41.1l15.8-12.2C305.2,673,317.3,685.8,330.6,697.3z"/>
				<path class="st13" d="M313.3,383.6l17,10.6c-7.1,11.4-13.1,23.5-17.9,36.3l-18.8-6.9C298.9,409.5,305.5,396.1,313.3,383.6z"/>
				<path class="st0" d="M317.2,237.3l11.4,16.4c-16.7,11.6-32.1,24.9-46,39.6l-14.5-13.8C283,263.9,299.4,249.7,317.2,237.3z"/>
				<path class="st7" d="M318.5,77.2l7.9,18.4c-27.5,11.8-53.5,26.4-77.8,43.3l-11.4-16.4C262.6,104.7,289.8,89.5,318.5,77.2z"/>
				<path class="st9" d="M311.5,320.9l14.5,13.8c-11.2,11.7-21.1,24.6-29.8,38.4l-17-10.6C288.7,347.5,299.5,333.6,311.5,320.9z"/>
				<path class="st11" d="M326,634.7l-15.8,12.2c-9.9-12.8-18.5-26.6-25.7-41.2l18-8.8C309,610.3,317,623,326,634.7z"/>
				<path class="st11" d="M325.7,545.1l-19.4,5c-3.3-12.9-5.4-26.3-6.1-40l20-1C320.8,521.5,322.7,533.5,325.7,545.1z"/>
				<path class="st19" d="M325.3,814.8l-9.7,17.5c-22.5-12.5-43.7-27.3-63.1-44l13-15.2C283.9,789,303.9,803,325.3,814.8z"/>
				<path class="st1" d="M302.3,469.7l19.8,3c-1.3,8.9-2,18-2,27.3c0,3.1,0.1,6.1,0.2,9.1l-20,1c-0.2-3.4-0.3-6.7-0.3-10.1
					C300,489.7,300.8,479.6,302.3,469.7z"/>
				<path class="st11" d="M320.4,588.1l-18,8.8c-6.5-13.2-11.7-27.2-15.5-41.8l19.4-5C309.8,563.4,314.5,576.1,320.4,588.1z"/>
				<path class="st6" d="M310.7,58.9l7.8,18.3c-28.8,12.3-56,27.6-81.3,45.2L225.8,106l0,0c26.5-18.5,54.9-34.3,84.9-47.2
					L310.7,58.9z"/>
				<path class="st0" d="M317.6,712.5l-13,15.2c-15.4-13.2-29.4-27.9-41.8-44l15.8-12.3C290.2,686.4,303.3,700.1,317.6,712.5z"/>
				<path class="st0" d="M305.8,220.9l11.4,16.4c-17.8,12.4-34.2,26.5-49.1,42.2l-14.5-13.8C269.4,249.1,286.9,234.1,305.8,220.9z"
					/>
				<path class="st7" d="M315.6,832.3l-9.7,17.5c-23.7-13.2-46-28.7-66.4-46.3l13-15.2C271.9,805,293,819.8,315.6,832.3z"/>
				<path class="st13" d="M296.3,373l17,10.6c-7.8,12.5-14.4,25.9-19.6,40l-18.8-7C280.6,401.3,287.8,386.7,296.3,373z"/>
				<path class="st0" d="M293.6,423.6l18.8,6.9c-4.6,12.5-8.1,25.6-10.1,39.2l-19.8-3C284.8,451.8,288.5,437.3,293.6,423.6z"/>
				<path class="st0" d="M297.1,307.1l14.5,13.8c-12.1,12.7-22.9,26.6-32.2,41.6l-17-10.6C272.4,335.8,284,320.8,297.1,307.1z"/>
				<path class="st11" d="M310.2,646.9l-15.8,12.2c-10.7-13.8-20.1-28.8-27.9-44.6l18-8.8C291.7,620.3,300.3,634.1,310.2,646.9z"/>
				<path class="st1" d="M306.3,550.1l-19.4,5c-3.7-14.2-6-28.9-6.7-44l20-1C300.9,523.9,303,537.3,306.3,550.1z"/>
				<path class="st7" d="M305.9,849.8l-9.7,17.5c-24.9-13.8-48.3-30.2-69.7-48.6l13-15.2C259.9,821.1,282.1,836.6,305.9,849.8z"/>
				<path class="st2" d="M294.3,204.5l11.4,16.4c-18.9,13.2-36.4,28.2-52.2,44.8L239.1,252C255.8,234.4,274.3,218.4,294.3,204.5z"/>
				<path class="st0" d="M304.6,727.6l-13,15.2c-16.4-14.1-31.4-29.8-44.6-46.9l15.8-12.2C275.2,699.7,289.2,714.4,304.6,727.6z"/>
				<path class="st11" d="M302.4,596.9l-18,8.8c-7.1-14.4-12.8-29.7-16.9-45.5l19.4-5C290.7,569.7,295.9,583.7,302.4,596.9z"/>
				<path class="st1" d="M282.5,466.7l19.8,3c-1.5,9.9-2.3,20-2.3,30.3c0,3.4,0.1,6.8,0.3,10.1l-20,1c-0.2-3.7-0.3-7.4-0.3-11.1
					C280,488.7,280.9,477.5,282.5,466.7z"/>
				<path class="st0" d="M282.6,293.3l14.5,13.8c-13,13.7-24.7,28.7-34.7,44.8l-17-10.6C256.1,324,268.6,308,282.6,293.3z"/>
				<path class="st0" d="M279.3,362.5l17,10.6c-8.5,13.7-15.7,28.3-21.4,43.6l-18.8-6.9C262.3,393.1,270.1,377.3,279.3,362.5z"/>
				<path class="st4" d="M296.1,867.3l-9.7,17.5c-26.1-14.5-50.5-31.6-73-50.9l13-15.2C247.9,837.1,271.2,853.4,296.1,867.3z"/>
				<path class="st11" d="M294.4,659.2l-15.8,12.2c-11.6-14.9-21.6-31-30-48l18-8.8C274.3,630.4,283.7,645.3,294.4,659.2z"/>
				<path class="st6" d="M282.9,188.1l11.4,16.4c-20,13.9-38.5,29.9-55.2,47.5l-14.5-13.8C242.3,219.6,261.8,202.8,282.9,188.1z"/>
				<path class="st0" d="M274.9,416.6l18.8,7c-5.1,13.8-8.9,28.2-11.1,43.1l-19.8-3C265.2,447.4,269.3,431.6,274.9,416.6z"/>
				<path class="st0" d="M291.6,742.8l-13,15.2c-17.4-15-33.3-31.7-47.4-49.9l15.8-12.2C260.2,713,275.2,728.7,291.6,742.8z"/>
				<path class="st1" d="M287,555.2l-19.4,5c-4-15.5-6.5-31.5-7.3-48l20-1C281,526.3,283.3,541,287,555.2z"/>
				<path class="st20" d="M286.4,884.8l-9.7,17.5c-27.3-15.2-52.9-33-76.4-53.2l13-15.2C235.9,853.2,260.3,870.3,286.4,884.8z"/>
				<path class="st11" d="M284.5,605.7l-18,8.8c-7.7-15.6-13.8-32.1-18.3-49.4l19.4-5C271.7,576,277.4,591.3,284.5,605.7z"/>
				<path class="st6" d="M271.5,171.7l11.4,16.4c-21.1,14.7-40.6,31.5-58.3,50.1l-14.5-13.8C228.7,204.9,249.3,187.2,271.5,171.7z"
					/>
				<path class="st0" d="M268.1,279.5l14.5,13.8c-13.9,14.7-26.4,30.7-37.2,48l-17-10.6C239.9,312.3,253.2,295.2,268.1,279.5z"/>
				<path class="st1" d="M262.7,463.6l19.8,3c-1.6,10.9-2.5,22-2.5,33.3c0,3.7,0.1,7.5,0.3,11.1l-20,1c-0.2-4-0.3-8.1-0.3-12.2
					C260,487.6,260.9,475.5,262.7,463.6z"/>
				<path class="st12" d="M262.4,351.9l17,10.6c-9.3,14.8-17.1,30.6-23.2,47.2l-18.8-6.9C244,384.8,252.4,367.8,262.4,351.9z"/>
				<path class="st11" d="M278.6,671.4l-15.8,12.3c-12.4-16-23.2-33.2-32.2-51.5l18-8.8C257,640.4,267,656.5,278.6,671.4z"/>
				<path class="st9" d="M278.5,758l-13,15.2c-18.4-15.9-35.3-33.5-50.2-52.8l15.8-12.3C245.2,726.3,261.1,743,278.5,758z"/>
				<path class="st7" d="M276.7,902.3l-9.7,17.4l0,0.1c-28.5-15.8-55.1-34.5-79.7-55.6l13-15.2C223.9,869.2,249.4,887.1,276.7,902.3
					z"/>
				<path class="st0" d="M256.1,409.7l18.8,6.9c-5.6,15-9.7,30.8-12.1,47l-19.8-3C245.6,443,250.1,426,256.1,409.7z"/>
				<path class="st4" d="M260,155.3l11.4,16.4c-22.2,15.5-42.8,33.2-61.4,52.8l-14.5-13.8C215.1,190.1,236.7,171.5,260,155.3z"/>
				<path class="st0" d="M253.6,265.8l14.5,13.8c-14.9,15.6-28.2,32.8-39.7,51.2l-17-10.6C223.6,300.6,237.8,282.4,253.6,265.8z"/>
				<path class="st1" d="M267.6,560.2l-19.4,5c-4.3-16.7-7-34.1-7.9-52l20-1C261.1,528.7,263.6,544.7,267.6,560.2z"/>
				<path class="st11" d="M266.5,614.5l-18,8.8c-8.3-16.8-14.9-34.6-19.7-53.1l19.4-5C252.7,582.4,258.8,598.9,266.5,614.5z"/>
				<path class="st2" d="M265.5,773.2l-13,15.2c-19.5-16.7-37.2-35.4-53-55.7l15.8-12.2C230.2,739.6,247.1,757.3,265.5,773.2z"/>
				<path class="st11" d="M262.8,683.6l-15.8,12.2c-13.2-17-24.7-35.4-34.3-54.9l18-8.8C239.6,650.4,250.4,667.7,262.8,683.6z"/>
				<path class="st1" d="M243,460.6l19.8,3c-1.8,11.9-2.7,24-2.7,36.4c0,4.1,0.1,8.1,0.3,12.2l-20,1c-0.2-4.4-0.3-8.7-0.3-13.2
					C240,486.6,241,473.5,243,460.6z"/>
				<path class="st12" d="M245.4,341.3l17,10.6c-10,16-18.4,33-25,50.9l-18.8-7C225.7,376.6,234.7,358.4,245.4,341.3z"/>
				<path class="st6" d="M248.6,138.8l11.4,16.4c-23.3,16.3-44.9,34.8-64.5,55.4l-14.5-13.8C201.6,175.3,224.2,155.9,248.6,138.8z"
					/>
				<path class="st0" d="M237.4,402.7l18.8,6.9c-6,16.3-10.5,33.3-13.2,50.9l-19.8-3C226.1,438.6,230.9,420.3,237.4,402.7z"/>
				<path class="st2" d="M239.1,252l14.5,13.8c-15.8,16.6-29.9,34.8-42.2,54.4l-17-10.6C207.4,288.9,222.3,269.6,239.1,252z"/>
				<path class="st7" d="M252.5,788.3l-13,15.2c-20.5-17.6-39.2-37.3-55.8-58.7l15.8-12.2C215.2,752.9,233,771.6,252.5,788.3z"/>
				<path class="st6" d="M237.2,122.4l11.4,16.4c-24.5,17-47.1,36.5-67.5,58l-14.5-13.8C188,160.6,211.6,140.2,237.2,122.4z"/>
				<path class="st11" d="M248.6,623.3l-18,8.8c-8.9-18-16-37.1-21.1-56.9l19.4-5C233.7,588.7,240.3,606.5,248.6,623.3z"/>
				<path class="st1" d="M248.3,565.2l-19.4,5c-4.7-18-7.6-36.8-8.5-56l20-1C241.2,531,243.9,548.4,248.3,565.2z"/>
				<path class="st11" d="M246.9,695.9l-15.8,12.2c-14-18.1-26.3-37.6-36.5-58.4l18-8.8C222.2,660.5,233.8,678.9,246.9,695.9z"/>
				<path class="st12" d="M228.4,330.7l17,10.6c-10.7,17.1-19.7,35.3-26.8,54.5l-18.8-7C207.4,368.4,217,348.9,228.4,330.7z"/>
				<path class="st11" d="M223.2,457.6l19.8,3c-2,12.8-3,26-3,39.4c0,4.4,0.1,8.8,0.3,13.2l-20,1c-0.2-4.7-0.4-9.4-0.4-14.2
					C220,485.6,221.1,471.4,223.2,457.6z"/>
				<path class="st7" d="M239.4,803.5l-13,15.2c-21.5-18.5-41.2-39.1-58.6-61.6l15.8-12.2C200.3,766.2,218.9,785.9,239.4,803.5z"/>
				<path class="st6" d="M224.6,238.2l14.5,13.8c-16.7,17.6-31.7,36.9-44.6,57.6l-17-10.6C191.1,277.1,206.9,256.8,224.6,238.2z"/>
				<path class="st12" d="M218.6,395.8l18.8,7c-6.5,17.5-11.3,35.9-14.2,54.9l-19.8-3C206.5,434.2,211.6,414.6,218.6,395.8z"/>
				<path class="st6" d="M225.8,106l11.4,16.4c-25.6,17.8-49.2,38.2-70.6,60.7l-14.5-13.8C174.4,145.8,199.1,124.6,225.8,106
					L225.8,106z"/>
				<path class="st10" d="M231.1,708.1l-15.8,12.3c-14.8-19.2-27.8-39.8-38.6-61.8l18-8.8C204.9,670.5,217.1,690,231.1,708.1z"/>
				<path class="st11" d="M230.6,632.2l-18,8.8c-9.5-19.2-17-39.6-22.5-60.7l19.4-5C214.6,595.1,221.7,614.1,230.6,632.2z"/>
				<path class="st1" d="M228.9,570.2l-19.4,5c-5-19.3-8.1-39.4-9.1-60l20-1C221.3,533.4,224.2,552.2,228.9,570.2z"/>
				<path class="st12" d="M211.4,320.1l17,10.6c-11.4,18.2-21,37.7-28.5,58.1l-18.8-6.9C189.1,360.2,199.3,339.5,211.4,320.1z"/>
				<path class="st6" d="M226.4,818.7l-13,15.2c-22.6-19.4-43.1-41-61.4-64.5l15.8-12.3C185.3,779.5,204.9,800.2,226.4,818.7z"/>
				<path class="st6" d="M210.1,224.4l14.5,13.8c-17.7,18.6-33.5,38.9-47.1,60.8l-17-10.6C174.9,265.4,191.5,244,210.1,224.4z"/>
				<path class="st1" d="M203.4,454.6l19.8,3c-2.1,13.8-3.2,28-3.2,42.4c0,4.8,0.1,9.5,0.4,14.2l-20,1c-0.3-5-0.4-10.1-0.4-15.2
					C200,484.5,201.2,469.4,203.4,454.6z"/>
				<path class="st0" d="M199.9,388.8l18.8,7c-7,18.8-12.1,38.4-15.2,58.8l-19.8-3C186.9,429.8,192.4,408.9,199.9,388.8z"/>
				<path class="st4" d="M215.3,720.4l-15.8,12.2c-15.7-20.2-29.4-42.1-40.7-65.2l17.9-8.8C187.5,680.5,200.5,701.2,215.3,720.4z"/>
				<path class="st7" d="M213.4,833.9l-13,15.2c-23.6-20.3-45.1-42.9-64.1-67.5l15.8-12.2C170.3,792.9,190.8,814.5,213.4,833.9z"/>
				<path class="st11" d="M212.6,641l-18,8.8c-10-20.4-18.1-42-23.9-64.5l19.4-5C195.6,601.4,203.2,621.7,212.6,641z"/>
				<path class="st26" d="M194.4,309.5l17,10.6c-12.1,19.4-22.3,40-30.3,61.8l-18.8-6.9C170.8,351.9,181.6,330.1,194.4,309.5z"/>
				<path class="st6" d="M195.6,210.6l14.5,13.8c-18.6,19.6-35.2,41-49.6,64l-17-10.6C158.6,253.7,176.1,231.2,195.6,210.6z"/>
				<path class="st1" d="M209.5,575.2l-19.4,5c-5.3-20.6-8.6-42-9.7-64l20-1C201.4,535.8,204.5,555.9,209.5,575.2z"/>
				<path class="st1" d="M183.6,451.5l19.8,3c-2.3,14.8-3.4,30-3.4,45.4c0,5.1,0.1,10.2,0.4,15.2l-20,1c-0.3-5.4-0.4-10.8-0.4-16.2
					C180,483.5,181.3,467.3,183.6,451.5z"/>
				<path class="st4" d="M200.4,849l-13,15.2c-24.6-21.1-47-44.7-66.9-70.4l0,0l15.8-12.2C155.3,806.2,176.8,828.8,200.4,849z"/>
				<path class="st0" d="M181.1,381.9l18.8,6.9c-7.4,20-12.9,41-16.2,62.7l-19.8-3C167.4,425.5,173.2,403.2,181.1,381.9z"/>
				<path class="st4" d="M199.5,732.6l-15.8,12.2c-16.5-21.3-30.9-44.3-42.9-68.7l18-8.8C170.1,690.5,183.8,712.4,199.5,732.6z"/>
				<path class="st6" d="M181.1,196.9l14.5,13.8c-19.5,20.5-37,43-52.1,67.2l-17-10.6C142.3,241.9,160.6,218.4,181.1,196.9z"/>
				<path class="st10" d="M194.7,649.8l-18,8.8c-10.6-21.6-19.2-44.5-25.3-68.3l19.4-5C176.6,607.7,184.6,629.3,194.7,649.8z"/>
				<path class="st20" d="M177.5,299l17,10.6c-12.8,20.5-23.6,42.4-32.1,65.4l-18.8-7C152.6,343.7,163.9,320.6,177.5,299z"/>
				<path class="st1" d="M190.1,580.2l-19.4,5c-5.7-21.9-9.2-44.6-10.3-68l20-1C181.5,538.2,184.8,559.6,190.1,580.2z"/>
				<path class="st4" d="M183.7,744.8l-15.8,12.2c-17.3-22.3-32.4-46.5-45-72.1l18-8.8C152.8,700.6,167.2,723.6,183.7,744.8z"/>
				<path class="st1" d="M163.9,448.5l19.8,3c-2.4,15.8-3.6,32-3.6,48.5c0,5.4,0.1,10.8,0.4,16.2l-20,1c-0.3-5.7-0.4-11.4-0.4-17.2
					C160,482.5,161.3,465.3,163.9,448.5z"/>
				<path class="st6" d="M166.6,183.1l14.5,13.8c-20.5,21.5-38.8,45.1-54.5,70.4l-17-10.6C126.1,230.2,145.2,205.6,166.6,183.1z"/>
				<path class="st2" d="M162.3,374.9l18.8,6.9c-7.9,21.3-13.7,43.6-17.2,66.6l-19.8-3C147.8,421.1,154,397.5,162.3,374.9z"/>
				<path class="st20" d="M160.5,288.4l17,10.6c-13.5,21.6-24.9,44.7-33.9,69l-18.8-6.9C134.3,335.5,146.3,311.2,160.5,288.4z"/>
				<path class="st4" d="M176.7,658.6l-17.9,8.8c-11.2-22.8-20.2-47-26.7-72.1l19.4-5C157.6,614.1,166.1,636.9,176.7,658.6z"/>
				<path class="st8" d="M170.8,585.2l-19.4,5c-6-23.2-9.7-47.3-10.9-72l20-1C161.6,540.6,165.1,563.3,170.8,585.2z"/>
				<path class="st4" d="M167.9,757.1L152,769.3c-18.1-23.4-34-48.7-47.2-75.5l18-8.8C135.4,710.6,150.5,734.8,167.9,757.1z"/>
				<path class="st6" d="M152.1,169.3l14.5,13.8c-21.4,22.5-40.5,47.1-57,73.6l-16.9-10.5l-0.1,0
					C109.8,218.5,129.8,192.8,152.1,169.3z"/>
				<path class="st8" d="M144.1,445.5l19.8,3c-2.6,16.8-3.9,34-3.9,51.5c0,5.8,0.1,11.5,0.4,17.2l-20,1c-0.3-6-0.5-12.1-0.5-18.2
					C140,481.5,141.4,463.3,144.1,445.5z"/>
				<path class="st6" d="M143.6,368l18.8,7c-8.4,22.5-14.5,46.1-18.2,70.5l-19.8-3C128.2,416.7,134.7,391.8,143.6,368z"/>
				<path class="st20" d="M143.5,277.8l17,10.6c-14.2,22.8-26.2,47.1-35.7,72.6l-18.8-7C116,327.3,128.6,301.7,143.5,277.8z"/>
				<path class="st5" d="M158.8,667.4l-18,8.8c-11.8-24-21.3-49.4-28.1-75.9l19.4-5C138.5,620.4,147.5,644.5,158.8,667.4z"/>
				<path class="st4" d="M152,769.3l-15.8,12.2c-19-24.5-35.5-50.9-49.3-79l18-8.8C118.1,720.6,133.9,745.9,152,769.3z"/>
				<path class="st7" d="M151.4,590.3l-19.4,5c-6.3-24.5-10.3-49.9-11.6-76l20-1C141.7,543,145.4,567.1,151.4,590.3z"/>
				<path class="st5" d="M124.3,442.5l19.8,3c-2.7,17.8-4.1,36-4.1,54.5c0,6.1,0.1,12.2,0.5,18.2l-20,1c-0.3-6.4-0.5-12.8-0.5-19.3
					C120,480.4,121.5,461.2,124.3,442.5z"/>
				<path class="st5" d="M124.8,361l18.8,6.9c-8.8,23.8-15.3,48.7-19.2,74.5l-19.8-3C108.7,412.3,115.5,386.1,124.8,361z"/>
				<path class="st20" d="M126.5,267.2l17,10.6c-14.9,23.9-27.5,49.5-37.5,76.3l-18.8-6.9C97.7,319,110.9,292.3,126.5,267.2z"/>
				<path class="st5" d="M140.8,676.2l-18,8.8c-12.4-25.2-22.4-51.9-29.5-79.7l19.4-5C119.5,626.8,129,652.2,140.8,676.2z"/>
				<path class="st4" d="M136.2,781.6l-15.8,12.2l0,0c-19.8-25.5-37.1-53.1-51.5-82.4l0.1,0l17.9-8.8
					C100.7,730.7,117.3,757.1,136.2,781.6z"/>
				<path class="st5" d="M132,595.3l-19.4,5c-6.7-25.8-10.8-52.5-12.2-80l20-1C121.8,545.4,125.7,570.8,132,595.3z"/>
				<path class="st20" d="M109.6,256.6l17,10.6c-15.7,25.1-28.8,51.8-39.3,79.9l-18.8-7C79.4,310.8,93.2,282.9,109.6,256.6z"/>
				<path class="st5" d="M106.1,354.1l18.8,7c-9.3,25-16.1,51.3-20.2,78.4l-19.8-3C89.1,407.9,96.3,380.4,106.1,354.1z"/>
				<path class="st6" d="M104.6,439.4l19.8,3c-2.8,18.8-4.3,38-4.3,57.5c0,6.5,0.2,12.9,0.5,19.3l-20,1c-0.3-6.7-0.5-13.5-0.5-20.3
					C100,479.4,101.6,459.2,104.6,439.4z"/>
				<path class="st5" d="M122.8,685l-18,8.8c-13-26.5-23.4-54.4-30.9-83.5l19.4-5C100.5,633.1,110.4,659.8,122.8,685z"/>
				<path class="st5" d="M112.7,600.3l-19.4,5c-7-27-11.3-55.1-12.8-84l20-1C101.9,547.8,106,574.5,112.7,600.3z"/>
				<path class="st6" d="M92.7,246.1l16.9,10.5c-16.4,26.2-30.2,54.2-41.1,83.5l-18.6-6.9l-0.1,0C61.1,302.6,75.5,273.4,92.7,246.1
					L92.7,246.1z"/>
				<path class="st5" d="M87.3,347.1l18.8,6.9c-9.8,26.3-16.9,53.8-21.3,82.3l-19.8-3C69.6,403.5,77.1,374.7,87.3,347.1z"/>
				<path class="st5" d="M104.9,693.8l-18,8.8c-13.6-27.7-24.5-56.9-32.3-87.3l19.4-5C81.5,639.4,91.9,667.4,104.9,693.8z"/>
				<path class="st7" d="M84.8,436.4l19.8,3c-3,19.8-4.6,40-4.6,60.6c0,6.8,0.2,13.5,0.5,20.3l-20,1c-0.3-7-0.5-14.1-0.5-21.3
					C80,478.4,81.6,457.1,84.8,436.4z"/>
				<path class="st5" d="M93.3,605.3l-19.4,5c-7.3-28.3-11.9-57.8-13.4-88l20-1C82,550.2,86.3,578.3,93.3,605.3z"/>
				<path class="st5" d="M68.5,340.2l18.8,7c-10.2,27.5-17.7,56.4-22.3,86.2l-19.8-3C50,399.1,57.8,369,68.5,340.2z"/>
				<path class="st5" d="M86.9,702.6l-17.9,8.8l-0.1,0c-14.2-28.8-25.5-59.3-33.8-91.1l0.1,0l19.3-5C62.4,645.8,73.3,675,86.9,702.6
					z"/>
				<path class="st4" d="M65,433.4l19.8,3c-3.2,20.7-4.8,42-4.8,63.6c0,7.1,0.2,14.2,0.5,21.3l-20,1c-0.4-7.4-0.5-14.8-0.5-22.3
					C60,477.4,61.7,455.1,65,433.4z"/>
				<path class="st5" d="M73.9,610.3l-19.4,5c-7.7-29.6-12.4-60.4-14-92l20-1C62.1,552.5,66.6,582,73.9,610.3z"/>
				<path class="st6" d="M49.9,333.3l18.6,6.9c-10.7,28.8-18.5,59-23.3,90.1l-19.7-3l-0.1,0c4.9-32.5,13.1-64,24.3-94L49.9,333.3z"
					/>
				<path class="st5" d="M45.2,430.3l19.8,3c-3.3,21.7-5,44-5,66.6c0,7.5,0.2,14.9,0.5,22.3l-20,1c-0.4-7.7-0.6-15.5-0.6-23.3
					C40,476.3,41.8,453,45.2,430.3z"/>
				<path class="st5" d="M54.6,615.3l-19.3,5l-0.1,0c-8-30.9-13-63-14.6-96h0l20-1C42.2,554.9,46.9,585.7,54.6,615.3z"/>
				<path class="st5" d="M25.5,427.3l19.7,3C41.8,453,40,476.3,40,500c0,7.8,0.2,15.6,0.6,23.3l-20,1h0c-0.4-8-0.6-16.2-0.6-24.3
					C20,475.3,21.9,451,25.5,427.3L25.5,427.3z"/>
			</g>
			<g>
			</g>
		</g>
	</g>
</g>
</svg>
